<svg xmlns="http://www.w3.org/2000/svg" viewBox="0 0 254.41 194.47"><defs><style>.cls-1{fill:#fcca46;}.cls-2{fill:#ffa895;}.cls-3{fill:#fff;}.cls-4{fill:#f9d075;}</style></defs><g id="Layer_2" data-name="Layer 2"><g id="Layer_1-2" data-name="Layer 1"><circle class="cls-1" cx="42.75" cy="151.72" r="42.75" transform="translate(-33.72 13.88) rotate(-13.28)"/><path class="cls-1" d="M13.22,120.81s31.65,73.92,33.52,73.62c20-3.3,26.28-9,40.75-25-.4-.19-.78-.42-1.15-.63-1.13-.67-2.26-1.36-3.37-2.08-2.22-1.43-4.38-2.94-6.5-4.52C72.16,159,68,155.5,64,151.91c-7.38-6.6-14.77-13.4-21-21.13a69.48,69.48,0,0,1-8-12.07,50.28,50.28,0,0,1-2.84-6.63c-.4-1.12-.74-2.26-1-3.41a11,11,0,0,1-.4-2C20.53,115,13.22,120.81,13.22,120.81Z"/><path class="cls-2" d="M117.25,48.49a17.2,17.2,0,0,0,4.86,9.36c5.91,6.11,14.56,7.47,22.71,7,4.53-.25,9-.92,13.52-1.62s9.06-1.57,13.52-2.67c2.23-.56,4.45-1.17,6.64-1.85l.5-.15a1.45,1.45,0,0,0,1.71.8c1.39-.34,2.79-.69,4.18-1.06,11.24-3,22.42-6.94,32.33-13.13a68.09,68.09,0,0,0,13.5-11,23.53,23.53,0,0,0,5.08-7.42,11.07,11.07,0,0,0-.09-8.55,8.85,8.85,0,0,0-6.32-4.84A13.78,13.78,0,0,0,221,14.57a40.54,40.54,0,0,0-7.61,4.88c-2.36,1.76-4.68,3.57-7,5.36A94.4,94.4,0,0,1,191.9,34.4a40.59,40.59,0,0,1-7.89,3c-2.16.57-4.38.87-6.56,1.31.32-2.82,2.49-5.4,4.44-7.28,3.07-2.94,6.61-5.35,9.7-8.26a23.84,23.84,0,0,0,6.87-10.28c1.08-3.56,1.1-8.46-1.81-11.21A7.23,7.23,0,0,0,190.82.09a21.09,21.09,0,0,0-5.76,1.39,49,49,0,0,0-10.26,6,94.64,94.64,0,0,1-10.43,6.74,66.21,66.21,0,0,1-11.77,4.88c-4.27,1.3-8.7,1.93-13,3.16a30.4,30.4,0,0,0-11.38,6.22A41.85,41.85,0,0,0,120,37.43,16,16,0,0,0,117.25,48.49Z"/><path class="cls-2" d="M178.31,70.13c1.34-.07,2.69-.15,4-.24,10.7-.7,21.65-1.72,31.75-5.59a54.55,54.55,0,0,0,14.31-8.14,82.9,82.9,0,0,0,6.3-5.54,44.71,44.71,0,0,0,5.51-6c2.76-3.86,3.94-9.82.19-13.51a8.59,8.59,0,0,0-7-2.16,17.25,17.25,0,0,0-7.52,3.2C221,35.46,216.28,39,211.29,42.21c-4.62,2.93-9.5,5.34-14.35,7.86a74.83,74.83,0,0,0-13.51,8.49c-2,1.64-4.35,3.64-4.5,6.43a4.22,4.22,0,0,0,.45,2.06c-.35,0-.71,0-1.07.06C176.38,67.24,176.37,70.26,178.31,70.13Z"/><path class="cls-2" d="M201.61,60.57c1.13,2.12,3.45,2.48,5.64,2.55a32.83,32.83,0,0,0,4.85-.23,1.65,1.65,0,0,0,1.7.68,22.33,22.33,0,0,0,3.41-.75c4.73-1.46,9.11-4.11,13.37-6.59a126.21,126.21,0,0,0,12.47-8c3.74-2.81,7.12-6.32,8.33-11,1.1-4.16.08-8.79-3.39-11.54a8.56,8.56,0,0,0-5.64-2,10.87,10.87,0,0,0-5.82,2.17c-1.74,1.23-3.27,2.71-4.88,4.1A45.38,45.38,0,0,1,226,34c-7.64,4.69-16.29,8.24-21.81,15.62C202,52.54,199.67,56.94,201.61,60.57Z"/><path class="cls-2" d="M203.73,56.25c3.61,1,7.29-.34,10.31-2.36a33.78,33.78,0,0,0,11.8-7l1.47-1.35a2.08,2.08,0,0,0,.73-.36l1.26-1,.34-.15a1.85,1.85,0,0,0,1-.92q4.68-3.84,9.07-8c3.19-3,6.45-6.54,6.56-11.18.08-3.8-2.28-7.38-6.18-8-3.71-.57-7.37,1.1-10.35,3.19-6.27,4.41-11,10.47-16.79,15.49a40.91,40.91,0,0,1-4.4,3.36c-1.47,1-3,1.75-4.55,2.63-2.78,1.6-5.77,3.76-6.28,7.17C197.13,51.74,200.09,55.2,203.73,56.25Z"/><path class="cls-2" d="M104.7,74.1a37.86,37.86,0,0,0,6.15,9.27,21.86,21.86,0,0,0,10.09,5.74,58.16,58.16,0,0,0,5.86,1.26,50.19,50.19,0,0,0,6.71.82,30.73,30.73,0,0,0,12.86-2.76c4.08-1.69,8.08-3.6,12.14-5.36q24.59-10.68,50.12-19c1.84-.61,1-3.52-.8-2.91-2,.65-4.05,1.33-6.07,2q-7.59,2.58-15.12,5.38c2-2.54,2.6-6.11.46-8.79a5.67,5.67,0,0,0-5-1.82,34.78,34.78,0,0,1-5.59,0,17.14,17.14,0,0,1-9.5-3.86,35.19,35.19,0,0,1-3.92-4.53,28.82,28.82,0,0,0-4.18-4.3,50.35,50.35,0,0,0-10.67-6.54A41.83,41.83,0,0,0,136.4,35c-7.58-1-15.76.69-21.35,6.17-3,2.93-5.19,6.66-7.5,10.14-1.23,1.84-2.49,3.67-3.67,5.54a16.28,16.28,0,0,0-2.44,5.6C100.69,66.67,102.85,70.47,104.7,74.1Z"/><path class="cls-2" d="M30.73,106.64a11,11,0,0,0,.4,2c.3,1.15.64,2.29,1,3.41A50.28,50.28,0,0,0,35,118.71a69.48,69.48,0,0,0,8,12.07c6.24,7.73,13.63,14.53,21,21.13,4,3.59,8.13,7.05,12.44,10.27,2.12,1.58,4.28,3.09,6.5,4.52,1.11.72,2.24,1.41,3.37,2.08.37.21.75.44,1.15.63a225.86,225.86,0,0,0,15.42-19.19c2.8-3.87,5.77-7.94,8.84-12.09,21.38-29,47-62.34,47-62.34l-7.94-40.45s2-11.71-8.54-11.63S110,36.24,92.19,56.61c-5,5.66-30,30.24-41,39.55C40.31,105.35,40.14,99,30.73,106.64Z"/><path class="cls-3" d="M253.81,29.82a10.46,10.46,0,0,0-6.34-6.15c-6.26-2.21-13.35,4.13-18.5,6.91-13.51,7.3-28.12,13.68-43.74,13.76a1.51,1.51,0,0,0,0,3,67.06,67.06,0,0,0,13.32-1.44,105,105,0,0,0,25.1-9.15c4-2,7.94-4.13,11.84-6.33,4.11-2.32,8.24-6.21,13-2.9a7.1,7.1,0,0,1,2.85,6.79c-.6,5.51-5.3,10-9.6,12.92A112.65,112.65,0,0,1,225.52,56a234.71,234.71,0,0,1-22.82,9.39c-8.63,3-17.12,6.6-25.74,9.55s-17.62,4.75-25.25,9.81C145.39,89,141.22,95.21,137,101.37c-4.71,6.91-9.65,13.67-14.7,20.34-5.68,7.5-11.5,14.89-17.32,22.28a1.57,1.57,0,0,0,0,2.14,1.53,1.53,0,0,0,2.14,0c10.34-13.13,20.69-26.27,30.26-40,4.25-6.11,8.12-12.92,14.1-17.55,5.19-4,11.5-6.14,17.68-8,7-2.18,14.23-5,21.2-7.71,7.15-2.81,14.51-4.89,21.68-7.73q9.76-3.85,19.19-8.53c5.65-2.81,11.47-5.7,16.16-10C251.8,42.53,256,36,253.81,29.82Z"/><path class="cls-3" d="M185.38,39.09a95,95,0,0,0,14.18-2.67,36.27,36.27,0,0,0,6.65-2.64,48.47,48.47,0,0,0,6.31-4.12c4.27-3.15,8.55-6.27,12.95-9.22,3.82-2.56,8.37-5.47,13.2-4.92,4.38.5,9.08,4,8.6,8.88a1.56,1.56,0,0,1-1.51,1.51,1.52,1.52,0,0,1-1.51-1.51c.33-3.32-3.09-5.78-6.2-5.9-4.53-.18-8.58,2.87-12.14,5.28-4.19,2.83-8.24,5.84-12.32,8.83A42.53,42.53,0,0,1,201,39.14a95.23,95.23,0,0,1-15.62,3c-.81.11-1.51-.77-1.51-1.51A1.54,1.54,0,0,1,185.38,39.09Z"/><path class="cls-3" d="M176.63,36.52a1.56,1.56,0,0,1,1.06-.44h1.87l.2-.08a88.11,88.11,0,0,0,23.65-11.13c3.61-2.41,6.88-5.19,10.27-7.89,3.23-2.57,6.76-4.9,11-5.37,4-.45,8.42,1,10.61,4.57,1,1.66-1.59,3.18-2.6,1.52-1.64-2.67-5.07-3.44-8-3.07-3.66.47-6.84,2.85-9.62,5.12-3.25,2.66-6.48,5.32-10,7.66a90,90,0,0,1-10.92,6.24,91.85,91.85,0,0,1-13.56,5.26,1.69,1.69,0,0,1-.74.19h-2.14a1.56,1.56,0,0,1-1.06-.44,1.23,1.23,0,0,1-.32-.49,1.27,1.27,0,0,1-.13-.58A1.55,1.55,0,0,1,176.63,36.52Z"/><path class="cls-3" d="M63.31,81.58A178.07,178.07,0,0,0,81.07,66.42C86.68,61,92,55.22,97.45,49.66c10.21-10.36,21.44-20.27,35.22-25.51a64.9,64.9,0,0,1,10.51-2.89,67.39,67.39,0,0,0,11-2.88c6.65-2.53,12.67-6.47,18.66-10.25,3.1-2,6.21-4,9.48-5.65,3.12-1.6,6.59-2.84,10.14-2.39,3.17.41,6.34,2.05,7.77,5,1.57,3.28.93,7-.54,10.15-2.47,5.34-7.35,9.33-11.79,13-4.24,3.49-8.81,7-11.61,11.82a18.93,18.93,0,0,0-1.57,3.46c-.61,1.83-3.53,1.05-2.91-.8,3.69-11.08,15.24-16,22.32-24.47a15.88,15.88,0,0,0,3.95-7.88,6.1,6.1,0,0,0-3.59-6.68c-2.85-1.25-6-.64-8.82.52a67.19,67.19,0,0,0-9.31,5.26c-6,3.72-11.83,7.66-18.27,10.52a53.25,53.25,0,0,1-10.2,3.37c-3.7.81-7.44,1.4-11.07,2.53C123.4,30.06,112.24,39.27,102.38,49c-5.43,5.35-10.59,11-16,16.38a191.29,191.29,0,0,1-17,15.3q-2.27,1.78-4.57,3.51a1.52,1.52,0,0,1-2.07-.54A1.55,1.55,0,0,1,63.31,81.58Z"/><path class="cls-4" d="M25.78,107.21c.92,12.81,14.29,27,22.53,36.08,9.89,11,21.64,22.79,35.09,29.47,8.69,4.32,9.72.76,15.35-6.45,4.62-5.93,17.56-17.32,15.91-24.6-1.17-5.22-8.94-9.86-12.42-13.67-8.94-9.7-18.5-19-25.75-29.87-3.07-4.61-10.4-19.6-17.12-19.6A9.34,9.34,0,0,0,54.86,81C48.61,86,25.78,98.79,25.78,107.21Z"/></g></g></svg>