<svg xmlns="http://www.w3.org/2000/svg" xmlns:xlink="http://www.w3.org/1999/xlink" width="1920" height="780.001" viewBox="0 0 1920 780.001">
  <defs>
    <linearGradient id="linear-gradient" x1="0.735" y1="1.035" x2="0.921" y2="0.104" gradientUnits="objectBoundingBox">
      <stop offset="0" stop-color="#0c29a3"/>
      <stop offset="1" stop-color="#2c7eeb"/>
    </linearGradient>
    <linearGradient id="linear-gradient-2" x1="0.632" y1="0.269" x2="0.341" y2="0.845" gradientUnits="objectBoundingBox">
      <stop offset="0" stop-color="#4191df"/>
      <stop offset="0.507" stop-color="#2a49c1"/>
      <stop offset="1" stop-color="#0a249f" stop-opacity="0"/>
    </linearGradient>
  </defs>
  <g id="Group_1" data-name="Group 1" transform="translate(0.015 0.014)">
    <path id="Main_BG" data-name="Main BG" d="M0-60H1919.975V549.013L432.9,720,0,549.013Z" transform="translate(0 59.986)" fill="url(#linear-gradient)"/>
    <g id="btm-1" transform="translate(1022.143 588.986)">
      <circle id="Ellipse_2" data-name="Ellipse 2" cx="8.01" cy="8.01" r="8.01" transform="translate(34.327 68.654)" fill="#71adfb" opacity="0.3"/>
      <circle id="Ellipse_3" data-name="Ellipse 3" cx="8.01" cy="8.01" r="8.01" transform="translate(34.327 34.327)" fill="#71adfb" opacity="0.3"/>
      <circle id="Ellipse_4" data-name="Ellipse 4" cx="8.01" cy="8.01" r="8.01" transform="translate(34.327 0)" fill="#71adfb" opacity="0.3"/>
      <circle id="Ellipse_6" data-name="Ellipse 6" cx="8.01" cy="8.01" r="8.01" transform="translate(102.98 68.654)" fill="#71adfb" opacity="0.3"/>
      <circle id="Ellipse_7" data-name="Ellipse 7" cx="8.01" cy="8.01" r="8.01" transform="translate(102.98 34.327)" fill="#71adfb" opacity="0.3"/>
      <circle id="Ellipse_8" data-name="Ellipse 8" cx="8.01" cy="8.01" r="8.01" transform="translate(102.98 0)" fill="#71adfb" opacity="0.3"/>
      <circle id="Ellipse_10" data-name="Ellipse 10" cx="8.01" cy="8.01" r="8.01" transform="translate(0 68.654)" fill="#71adfb" opacity="0.3"/>
      <circle id="Ellipse_11" data-name="Ellipse 11" cx="8.01" cy="8.01" r="8.01" transform="translate(0 34.327)" fill="#71adfb" opacity="0.3"/>
      <path id="Path_1" data-name="Path 1" d="M8.01,0A8.01,8.01,0,1,1,0,8.01,8.01,8.01,0,0,1,8.01,0Z" transform="translate(0 0)" fill="#71adfb" opacity="0.3"/>
      <circle id="Ellipse_14" data-name="Ellipse 14" cx="8.01" cy="8.01" r="8.01" transform="translate(68.654 68.654)" fill="#71adfb" opacity="0.3"/>
      <circle id="Ellipse_15" data-name="Ellipse 15" cx="8.01" cy="8.01" r="8.01" transform="translate(68.654 34.327)" fill="#71adfb" opacity="0.3"/>
      <circle id="Ellipse_16" data-name="Ellipse 16" cx="8.01" cy="8.01" r="8.01" transform="translate(68.654 0)" fill="#71adfb" opacity="0.3"/>
    </g>
    <g id="Light_BG" data-name="Light BG" transform="translate(0 608.998)">
      <path id="Subtraction_2" data-name="Subtraction 2" d="M1919.976,170.988H432.925L1919.975,0V170.987h0Zm-1487.077,0H0V0L432.9,170.987h0Z" fill="#f4f8fe"/>
    </g>
    <path id="Right_design" data-name="Right design" d="M1566.961,593.892,1927.4,723.453l0-171Z" transform="translate(-7.413 55.533)" fill="#0e329c"/>
    <path id="Left_Design" data-name="Left Design" d="M371.672-59.987,191.506,719.986l-432.93-304.523-.013-475.477Z" transform="translate(241.422 60)" fill="#041280"/>
    <path id="Color_Tone" data-name="Color Tone" d="M0,244.871,1052.158,648.828,427.692,720Z" transform="translate(0 59.986)" fill="url(#linear-gradient-2)"/>
    <g id="top-1" transform="translate(637.991 30.313)">
      <circle id="Ellipse_1" data-name="Ellipse 1" cx="8.01" cy="8.01" r="8.01" transform="translate(34.327 68.654)" fill="#71adfb" opacity="0.3"/>
      <circle id="Ellipse_2-2" data-name="Ellipse 2" cx="8.01" cy="8.01" r="8.01" transform="translate(34.327 34.327)" fill="#71adfb" opacity="0.3"/>
      <circle id="Ellipse_3-2" data-name="Ellipse 3" cx="8.01" cy="8.01" r="8.01" transform="translate(34.327)" fill="#71adfb" opacity="0.3"/>
      <circle id="Ellipse_5" data-name="Ellipse 5" cx="8.01" cy="8.01" r="8.01" transform="translate(102.98 68.654)" fill="#71adfb" opacity="0.3"/>
      <circle id="Ellipse_6-2" data-name="Ellipse 6" cx="8.01" cy="8.01" r="8.01" transform="translate(102.98 34.327)" fill="#71adfb" opacity="0.3"/>
      <circle id="Ellipse_7-2" data-name="Ellipse 7" cx="8.01" cy="8.01" r="8.01" transform="translate(102.98)" fill="#71adfb" opacity="0.3"/>
      <circle id="Ellipse_9" data-name="Ellipse 9" cx="8.01" cy="8.01" r="8.01" transform="translate(0 68.654)" fill="#71adfb" opacity="0.3"/>
      <circle id="Ellipse_10-2" data-name="Ellipse 10" cx="8.01" cy="8.01" r="8.01" transform="translate(0 34.327)" fill="#71adfb" opacity="0.3"/>
      <circle id="Ellipse_11-2" data-name="Ellipse 11" cx="8.01" cy="8.01" r="8.01" transform="translate(0)" fill="#71adfb" opacity="0.3"/>
      <circle id="Ellipse_13" data-name="Ellipse 13" cx="8.01" cy="8.01" r="8.01" transform="translate(68.654 68.654)" fill="#71adfb" opacity="0.3"/>
      <circle id="Ellipse_14-2" data-name="Ellipse 14" cx="8.01" cy="8.01" r="8.01" transform="translate(68.654 34.327)" fill="#71adfb" opacity="0.3"/>
      <circle id="Ellipse_15-2" data-name="Ellipse 15" cx="8.01" cy="8.01" r="8.01" transform="translate(68.654)" fill="#71adfb" opacity="0.3"/>
    </g>
    <g id="Shape_3" data-name="Shape 3" transform="translate(1022.143 395.869)">
      <g id="Layer_1" data-name="Layer 1" transform="translate(0 0)">
        <rect id="Rectangle_91" data-name="Rectangle 91" width="80.628" height="82.015" rx="0.87" transform="translate(0 85.331) rotate(-73.87)" fill="#c8c7ff"/>
        <path id="Path_1108" data-name="Path 1108" d="M87.489,100.826a1.4,1.4,0,0,1-.451,0L10.323,78.6A1.672,1.672,0,0,1,9.2,76.581L31.006,1.2a1.672,1.672,0,0,1,.786-.987,1.672,1.672,0,0,1,1.237-.2l76.681,22.255A1.672,1.672,0,0,1,110.9,24.3L89.161,99.639A1.672,1.672,0,0,1,87.489,100.826ZM68.528,94.288l18.777,5.434a.552.552,0,0,0,.686-.385L97.237,67.4a99.556,99.556,0,0,0-28.71,26.887ZM51.807,89.423l15.617,4.548A100.91,100.91,0,0,1,97.689,65.846l12.106-41.8a.552.552,0,0,0-.385-.686L96.351,19.53A121.928,121.928,0,0,1,77.239,63.271a118.1,118.1,0,0,1-25.5,26.151ZM21.174,39.093,10.256,76.932a.552.552,0,0,0,.368.686l39.8,11.521c23.242-17.323,38.341-40.8,44.9-69.91L60.418,9.2C53.6,24.7,40.4,34.762,21.174,39.093ZM32.578,1.1a.485.485,0,0,0-.268,0,.535.535,0,0,0-.268.334L21.526,37.889c18.493-4.3,31.218-14.062,37.839-29.061L32.729,1.12Z" transform="translate(6.496 0.025)" fill="#9391f7"/>
      </g>
    </g>
    <g id="Shape_2" data-name="Shape 2" transform="translate(1739.323 527.294)">
      <g id="Layer_1-2" data-name="Layer 1" transform="translate(0 0)">
        <path id="Path_1109" data-name="Path 1109" d="M84.926,115.463a1.087,1.087,0,0,1,0,.334.853.853,0,0,1-.268.3,1.237,1.237,0,0,1-.451.385,1.287,1.287,0,0,1-.569.117H83.3a1.288,1.288,0,0,1-.3-.167L.486,56.439a.819.819,0,0,1-.217-.2L.118,56A1.2,1.2,0,0,1,0,55.369a1.321,1.321,0,0,1,.217-.585,1.338,1.338,0,0,1,.217-.217,1.121,1.121,0,0,1,.234-.15L88,12.43h.569a1.2,1.2,0,0,1,1.02.686,1.27,1.27,0,0,1,.084.15,1.822,1.822,0,0,1,0,.3Z" transform="translate(10.659 -12.43)" fill="#c8c7ff" fill-rule="evenodd"/>
        <path id="Path_1110" data-name="Path 1110" d="M94.762.033h.084a1.672,1.672,0,0,1,.9.3,1.672,1.672,0,0,1,.619.7,1.221,1.221,0,0,1,.134.418,1.822,1.822,0,0,1,0,.435L94.077,54.776h0L91.8,103.818a2.659,2.659,0,0,1-.1.5,1.923,1.923,0,0,1-.234.435,2.174,2.174,0,0,1-.669.569,1.889,1.889,0,0,1-.853.167,2.592,2.592,0,0,1-.518-.1,1.94,1.94,0,0,1-.451-.234L6.427,45.3a2.858,2.858,0,0,1-.334-.3,2.741,2.741,0,0,1-.234-.368,1.99,1.99,0,0,1-.167-1,1.923,1.923,0,0,1,.334-.886l.3-.318a2.742,2.742,0,0,1,.368-.234L93.993.15A1.772,1.772,0,0,1,94.411,0ZM92.906,54.509,95.364,1.822a.468.468,0,0,0,0-.15.4.4,0,0,0,0-.134.585.585,0,0,0-.217-.234.5.5,0,0,0-.3-.1h-.334l-13.577,6.6a147.227,147.227,0,0,1-9.146,31.368A155.5,155.5,0,0,1,50.3,75.61L65.886,86.964A106.628,106.628,0,0,1,82.439,65.227C86.268,61.448,89.78,57.836,92.906,54.509ZM49.349,74.925A151.524,151.524,0,0,0,79.613,8.51L62.893,16.5A134.6,134.6,0,0,1,57.86,43.975,91.48,91.48,0,0,1,44.483,71.447ZM43.6,70.745c12.49-17.156,16.721-38.458,18.142-53.707L7.212,43.256H7.1a.384.384,0,0,0-.117.117.585.585,0,0,0-.1.3.485.485,0,0,0,0,.3.585.585,0,0,0,0,.134l.1.1ZM90.03,104.3a.669.669,0,0,0,.251,0,.585.585,0,0,0,.217-.184.685.685,0,0,0,0-.15.719.719,0,0,0,0-.184l2.324-47.47c-2.893,3.06-6.086,6.32-9.514,9.748a105.09,105.09,0,0,0-16.42,21.586L89.679,104.2a.418.418,0,0,0,.15,0,.268.268,0,0,0,.167,0Z" transform="translate(-5.682 19.464)" fill="#9391f7"/>
      </g>
    </g>
    <g id="Shape_1" data-name="Shape 1" transform="translate(1699.63 313.875)">
      <g id="Layer_1-3" data-name="Layer 1" transform="translate(0 0)">
        <path id="Path_1111" data-name="Path 1111" d="M1.12,52.184s-.134-.6-.134-.635A41.919,41.919,0,0,1,0,42.436a42.437,42.437,0,1,1,1.154,9.882Z" transform="translate(0 -0.051)" fill="#f7f7f7" fill-rule="evenodd"/>
        <path id="Path_1112" data-name="Path 1112" d="M51.516,91.693A43.14,43.14,0,0,1,9.5,58.452l-.1-.2a3.344,3.344,0,0,0,0-.435A43.859,43.859,0,0,1,8.41,48.57,43.156,43.156,0,1,1,51.516,91.693ZM30.782,85a41.9,41.9,0,0,0,57.8-17.055C61.4,65.374,41.952,71.109,30.782,85ZM20.4,76.644A41.217,41.217,0,0,0,29.6,84.3,45.146,45.146,0,0,1,49.66,70.34c10.668-3.929,24.011-5.183,39.662-3.7A41.8,41.8,0,0,0,87.65,27.619,109.2,109.2,0,0,1,55.88,48.887C40.648,55.676,28.726,64.939,20.4,76.644ZM10.9,58.519a41.8,41.8,0,0,0,8.528,16.988c8.477-11.7,20.5-21.018,35.782-27.94A107.23,107.23,0,0,0,86.9,26.348a41.651,41.651,0,0,0-7.023-8.461C71.263,27.1,59.091,34.14,41.785,40.025A80.494,80.494,0,0,0,10.9,58.519ZM51.516,6.768a41.8,41.8,0,0,0-41.8,41.8,42.654,42.654,0,0,0,.836,8.36A82.1,82.1,0,0,1,41.35,38.7c17.072-5.8,29.027-12.724,37.5-21.737a41.585,41.585,0,0,0-27.338-10.2Z" transform="translate(5.652 3.53)" fill="#9391f7"/>
      </g>
    </g>
    <g id="Layer_2" data-name="Layer 2" transform="translate(969.934 180.374)">
      <g id="Layer_1-4" data-name="Layer 1" transform="translate(0 0.04)">
        <path id="Path_1113" data-name="Path 1113" d="M50.073,134.886a.659.659,0,0,1-.634-.805h0a160.711,160.711,0,0,1-34.407-3.343C8.2,129.1,0,126.369,0,121.953a4.539,4.539,0,0,1,.22-1.342h0L49.439.357V.235a.2.2,0,0,1,.22-.2H50.2a1.22,1.22,0,0,1,.317.415L99.731,120.562h0a1.806,1.806,0,0,1,.317,1.391c0,4.417-8.3,7.321-15.129,8.785a166.887,166.887,0,0,1-34.407,3.416h0C50.732,134.373,50.512,134.788,50.073,134.886Zm0-10.444a.659.659,0,0,1,.659.805v7.321a162.051,162.051,0,0,0,34.163-3.245c10.224-2.318,13.958-5.271,13.958-7.2,0-1.122-1.171-2.44-3.416-3.66a.927.927,0,0,1-.317-1.025.634.634,0,0,1,.756-.39h0c.439.2.854.512,1.293.708L50.805,4.14V9.7a.61.61,0,0,1-.537.708c-.317,0-.756-.2-.756-.488V4.115L3.148,117.633a5.686,5.686,0,0,1,1.293-.708.708.708,0,0,1,.854.293h0a.927.927,0,0,1-.317,1.025c-2.245,1.22-3.416,2.44-3.416,3.66,0,1.928,3.612,4.88,13.958,7.2a156.417,156.417,0,0,0,34.163,3.245v-7.321a.586.586,0,0,1,.634-.708Zm0-7.321a.659.659,0,0,1-.634-.805v-4.88h-6.93c-.415,0-.732-.415-.634-.708a.781.781,0,0,1,.634-.805h6.93v-2.611a.634.634,0,0,1,.537-.732.659.659,0,0,1,.756.512v2.66h6.93a.655.655,0,0,1,.634.805.732.732,0,0,1-.756.708H50.61v4.88a.537.537,0,0,1-.537.805ZM12.03,115.486a.659.659,0,0,1-.634-.61.732.732,0,0,1,.537-.9c2.245-.61,4.88-1.22,7.687-1.733.415,0,.732.22.732.61h0a.732.732,0,0,1-.537.927,61.007,61.007,0,0,0-7.613,1.83Zm75.988,0h-.171c-2.221-.61-4.88-1.22-7.565-1.708a.756.756,0,0,1-.537-.927c0-.39.342-.61.756-.61h0a67,67,0,0,1,7.687,1.733.732.732,0,0,1,.537.9A.781.781,0,0,1,88.018,115.486Zm-15.129-2.831h0c-2.44-.317-5-.512-7.662-.708a.781.781,0,0,1-.659-.83.708.708,0,0,1,.659-.708h0c2.66.22,5.222.415,7.662.708a.9.9,0,0,1,.634.83.708.708,0,0,1-.634.708Zm-45.607,0a.634.634,0,0,1-.634-.708c-.122-.415.2-.708.634-.83,2.44-.293,5-.488,7.662-.708a.732.732,0,0,1,.756.708h0a.708.708,0,0,1-.634.83C32.284,112.143,29.722,112.338,27.281,112.655Zm22.792-13.4a.683.683,0,0,1-.634-.83V89.5a.61.61,0,0,1,.537-.708.634.634,0,0,1,.756.512v9.126a.683.683,0,0,1-.659.83Zm0-17.789a.659.659,0,0,1-.634-.805V71.733a.61.61,0,0,1,.537-.708c.317,0,.756.2.756.512v9.126a.659.659,0,0,1-.659.805Zm0-17.765a.659.659,0,0,1-.634-.805V53.969a.61.61,0,0,1,.537-.708c.317,0,.756.2.756.488V62.9a.659.659,0,0,1-.659.805Zm0-17.765a.659.659,0,0,1-.634-.805V36.2a.634.634,0,0,1,.537-.732c.317,0,.756.22.756.512v9.151a.785.785,0,0,1-.659.805Zm0-17.765a.659.659,0,0,1-.634-.805V18.415a.61.61,0,0,1,.537-.708c.317,0,.756.22.756.512V27.37c.1.39-.22.708-.659.805Z" transform="translate(0 -0.04)" fill="#fff"/>
      </g>
    </g>
  </g>
</svg>
