<svg xmlns="http://www.w3.org/2000/svg" viewBox="0 0 393.28 389.78"><defs><style>.cls-1{fill:#fcca46;}.cls-2{fill:#f9d075;}.cls-3{fill:#dba42a;}.cls-4{fill:#ffa895;}.cls-5{fill:#fff;}.cls-6{fill:#f76d6d;}</style></defs><g id="Layer_2" data-name="Layer 2"><g id="Layer_1-2" data-name="Layer 1"><circle class="cls-1" cx="44.36" cy="347.03" r="42.75" transform="translate(-78.54 19.48) rotate(-13.28)"/><path class="cls-2" d="M167.79,107.47c2.06-7.66-.21-47.42-17.54-60.51S38,62.63,23.33,105.31c-6.85,20-8.55,47.31,11.29,58.3s93.1,11.21,94.32,9.73S167.79,107.47,167.79,107.47Z"/><path class="cls-1" d="M.21,291.18c.11,12.68.28,25.37.58,38.05.16,6.37-.1,13,.81,19.35a111.32,111.32,0,0,0,2,11.36l76.2-22.65,28.8-56.78L281.48,185s-25.4-43.25-42.57-72.25c3.08-5.9,33.55-17.72,30.75-24.26-6.84-16-16.38-34.42-34.65-39-34.83-8.72-61.82,10.63-89.43,28.58l-5.79,3.77Q103.87,105.16,68,128.66c-3.81,2.5-11.28,6.66-19.79,12.14a187.49,187.49,0,0,0-21.85,16.09c-1.15,1-2.28,2-3.37,3.06-7.1,6.69-13.07,14.12-16.17,22C1.3,196.15.25,226.32.12,235.64-.12,254.15,0,272.67.21,291.18Z"/><path class="cls-3" d="M159.51,68a1.51,1.51,0,0,1,.54-2.06,1.54,1.54,0,0,1,2.06.54c9.13,12.18,12.15,28.49,8.73,43.24a49.81,49.81,0,0,1-4.51,12.06c-.91,1.72-3.52.2-2.61-1.52,6.76-12.77,7.15-28.41,1.76-41.74A47.17,47.17,0,0,0,159.51,68Z"/><path class="cls-3" d="M84.5,212.44c.07-1.93,3.09-1.94,3,0q-.57,16.62-.13,33.24t1.94,33.18q.84,9.36,2,18.68a1.52,1.52,0,0,1-1.51,1.51,1.55,1.55,0,0,1-1.51-1.51q-2.07-16.5-3.11-33.1t-1-33.22Q84.17,221.83,84.5,212.44Z"/><path class="cls-4" d="M48.24,140.8c21.64,8.41,61.2,18.73,86.54-4.68,22-20.3,14.42-41.05,5-54.3Q103.87,105.16,68,128.66C64.22,131.16,56.75,135.32,48.24,140.8Z"/><path d="M139.74,129.5s12.51-14.17,12.71-25.11S153.76,74.33,121.34,69,59.93,88.82,56.13,99.51s-3.35,15-3.35,15,36.82.79,60.75,6.59S139.74,129.5,139.74,129.5Z"/><circle cx="48.6" cy="35.62" r="35.62" transform="translate(-3.99 6.2) rotate(-7.02)"/><path d="M181.75,93.06c-3.19,4.44-8,6.27-12.63,7.74a17.35,17.35,0,0,1-.74,2.28c-1.84,4.39-5.49,7.4-9.13,9.66a52.56,52.56,0,0,1-5.93,3.13,14.28,14.28,0,0,1-7.47,1.66c-4.56-.53-7.51-5.55-9.59-9.66a49.94,49.94,0,0,1-4.36-13.06c-1.81-9.42-1.6-19.28-.45-28.94,1-8.74,3.1-19.42,10.46-24.41,4.07-2.75,8.74-3.14,13.26-3.09,2.48,0,5.11,0,7.22,1.53a5.83,5.83,0,0,1,1.25,1.23c-.35-1.8-.7-3.61-1-5.41a1.84,1.84,0,0,1,.89-2.13,1.34,1.34,0,0,1,1.83.91c1.13,6,2.27,11.9,3.88,17.67a66.89,66.89,0,0,0,5.64,14.38,56,56,0,0,0,4,6.13,39.28,39.28,0,0,1,3.78,5.66,14.36,14.36,0,0,1,1.78,6.92A13.86,13.86,0,0,1,181.75,93.06Z"/><path d="M47.78,66c8,43.19,30.88,45.38,57.49,45.38S168.42,74.61,168.42,48,154.43-1.14,108,5.71C81.63,9.59,40.76,28,47.78,66Z"/><path class="cls-4" d="M76.85,118.57q15,1.75,29.83,4.25c5.4.91,10.81,1.82,16.16,3a85.33,85.33,0,0,1,8.34,2.22l-2.24-2.57,8.65-26-20.5-1.64L95.37,87.92l-9.2,30.55Z"/><path class="cls-4" d="M93.8,75a37.07,37.07,0,1,0,27.34-40.26A73.22,73.22,0,0,1,114,52.56,71.28,71.28,0,0,1,93.8,75Z"/><path class="cls-4" d="M88.55,76.72a39.64,39.64,0,0,0,9.11,10.16A34.55,34.55,0,0,0,119,94.36c20.5,0,41.41-15.8,41.41-38.54,0-6.11-4-10.44-6.88-15.82-9.55-18.07-24.78-20.38-38.3-22.27-.24,5.36,3.36,20.21-3.86,34.1-5.07,9.76-9.38,14.45-17.58,21Q91.25,74.92,88.55,76.72Z"/><path d="M134.25,43.65a2.55,2.55,0,0,0,3.57,1.47c2.29-.84,4.69-5.95,6.54-7.74,1.34-1.29,5.82-3.23,3.74-5.16-1.88-1.75-6.76-.14-8.65.9C136.11,35,132.55,39.67,134.25,43.65Z"/><path class="cls-5" d="M150.39,62.12A14.12,14.12,0,1,1,164.51,48,14.14,14.14,0,0,1,150.39,62.12Zm0-25A10.89,10.89,0,1,0,161.28,48,10.9,10.9,0,0,0,150.39,37.11Z"/><path class="cls-6" d="M134.83,44.66a1.55,1.55,0,0,1,1.51-1.51,1.52,1.52,0,0,1,1.51,1.51,15.84,15.84,0,0,0,4.23,12,14.34,14.34,0,0,0,2.4,2.07,28.56,28.56,0,0,1,3,2c2.12,1.86,1.81,4.75,1.25,7.23-.42,1.9-3.33,1.09-2.91-.8a7.49,7.49,0,0,0,.27-3.08c-.22-1.07-1.15-1.5-2-2a17.92,17.92,0,0,1-5.17-4.44A18.78,18.78,0,0,1,134.83,44.66Z"/><path d="M86.17,70.13A1.89,1.89,0,0,0,87,71.8c.34.21.73.36,1.08.56.71.38,1.4.79,2.07,1.22A43.54,43.54,0,0,1,94,76.41c2.63,2.1,5.11,4.39,7.7,6.54,1.28,1.06,10.9,4.68,7-4.33-4.34-9.93-5-13.94-7.07-18.49a1.52,1.52,0,0,0-2.07-.54,1.48,1.48,0,0,0-.64,1.77,19,19,0,0,0-5.59,1.53A17.83,17.83,0,0,0,89,65.6C87.62,66.73,86.13,68.23,86.17,70.13Z"/><path d="M110.81,136.38c-8.17,4.93-14.12,1.88-17.66-3.86,2.31,3.74-10.2,13.75-20.72,11.39S59.7,132.67,59.72,125a14.74,14.74,0,0,1-5.92,3.23c-24.11,6-14-28-7.78-36.84,3.9-5.58,7.94-11.15,9.45-17.92a30.6,30.6,0,0,0,.7-7.58,42.49,42.49,0,0,1,7.64-12.36,30.31,30.31,0,0,1,11.93,2.17A25.84,25.84,0,0,1,87.56,64c3,4,4.24,9,5.1,13.8s1.53,9.73,3.15,14.43.66,3.84,5.28,9.13c2.51,2.88,9.29,9.89,11.45,13.06C116.61,120.47,119.38,131.21,110.81,136.38Z"/><path class="cls-4" d="M79.81,85.17A12.82,12.82,0,1,0,92.63,72.35,12.82,12.82,0,0,0,79.81,85.17Z"/><path d="M101.3,61.57a3.39,3.39,0,0,0,2.89-.45c.87-.49,1.73-1,2.63-1.45a39.45,39.45,0,0,1,5.25-2.17c3.06-1,6.64-2.35,7.85-5.67a2.53,2.53,0,0,0-.88-3.06,4.67,4.67,0,0,0-2.33-.73,11.64,11.64,0,0,0-5.83,1.14,20.4,20.4,0,0,0-4.65,3,14.79,14.79,0,0,0-4.65,3.7,9.42,9.42,0,0,0-1.73,2.64A2.32,2.32,0,0,0,101.3,61.57Z"/><path d="M137.79,75.56a1.52,1.52,0,0,1,2.06-.54,9.39,9.39,0,0,0,2.07.8,8.28,8.28,0,0,0,2.09.34,10.07,10.07,0,0,0,4.48-.73,1.52,1.52,0,0,1,1.86,1.06,1.55,1.55,0,0,1-1.06,1.85,13.41,13.41,0,0,1-11-.72A1.52,1.52,0,0,1,137.79,75.56Z"/><path class="cls-1" d="M225.47,144.42A62.82,62.82,0,0,0,238.27,155c4.64,3,9.51,5.68,14.37,8.31,5,2.72,10.35,5.23,16.12,5.81s11.47-.79,15.64-4.75a30,30,0,0,0,4.87-6.33c1.48-2.44,2.86-4.94,4.23-7.45a292.08,292.08,0,0,0,15-31.84q3.26-8.16,6-16.5c.9-2.74,1.78-5.5,2.57-8.28a28.4,28.4,0,0,0,1.35-8.86c-.21-6-2.54-11.7-5.38-17a144.55,144.55,0,0,0-8.94-14.36,77,77,0,0,0-10.78-12.5,40.12,40.12,0,0,0-6.53-5.17l-.23-.13a1.47,1.47,0,0,0-1-2.43,22.3,22.3,0,0,0-7.85,1.24c-10.9,3.72-26.31,15.36-30.89,25.26-5.16,11.16-9.93,22.52-14.65,33.87-4.78,11.52-6.74,22.43-11.18,34.08C219.81,130.94,224.47,143.3,225.47,144.42Z"/><path class="cls-2" d="M264.82,97.19a33.86,33.86,0,0,0,16.92,11.49,29.39,29.39,0,0,0,20.74-1.26,52.84,52.84,0,0,0,10.58-6.74,62.11,62.11,0,0,0,8.13-7.59,50.63,50.63,0,0,0,10-16.41,1.33,1.33,0,0,0,.76-.94,22.52,22.52,0,0,0,.73-6.11c-.16-8.63-4.78-16.29-10.61-22.36a69.27,69.27,0,0,0-9.23-8,34.44,34.44,0,0,0-11.13-5.57A31.94,31.94,0,0,0,278,37a40.22,40.22,0,0,0-15.58,16.5C255.33,67,255.2,84.8,264.82,97.19Z"/><path class="cls-1" d="M14.83,316.11S46.49,390,48.36,389.73c20-3.3,26.27-9,40.74-25-.39-.19-.77-.41-1.14-.63-1.14-.66-2.27-1.36-3.37-2.07-2.23-1.43-4.39-2.95-6.51-4.53-4.31-3.21-8.43-6.68-12.43-10.26-7.39-6.61-14.78-13.41-21-21.13a70,70,0,0,1-8-12.08,52.47,52.47,0,0,1-2.84-6.63c-.39-1.12-.74-2.26-1-3.4a12.06,12.06,0,0,1-.4-2C22.14,310.25,14.83,316.11,14.83,316.11Z"/><path class="cls-6" d="M90,80.2A1.54,1.54,0,0,1,92,79.66l9.23,4.73a1.52,1.52,0,0,1,.31,2.37,32.81,32.81,0,0,1-8.58,6,1.54,1.54,0,0,1-2.06-.55,1.51,1.51,0,0,1,.54-2.06A30.59,30.59,0,0,0,97.87,86l-7.35-3.77A1.52,1.52,0,0,1,90,80.2Z"/><path d="M54,116.31q9.57.78,19.09,1.83l3.77.43q15,1.75,29.83,4.25c5.4.91,10.81,1.82,16.16,3a85.33,85.33,0,0,1,8.34,2.22,53,53,0,0,1,6.42,2.56,1.54,1.54,0,0,0,2.14-1.08,151.6,151.6,0,0,0,4.18-16.2c.39-1.92-2.58-2.45-3-.55q-1.47,7.29-3.65,14.39c-1.64-.72-3.31-1.35-5-1.92a92.13,92.13,0,0,0-10.51-2.73c-11-2.25-22.11-4-33.22-5.48-3.48-.47-7-.91-10.46-1.32q-11.75-1.41-23.56-2.34a1.54,1.54,0,0,0-1.76,1.21A1.52,1.52,0,0,0,54,116.31Z"/><path class="cls-3" d="M23,160a310.55,310.55,0,0,1,75,7.9c1.9.44,2.7-2.48.8-2.91q-11.05-2.55-22.27-4.29A319.08,319.08,0,0,0,36.2,157q-4.91-.13-9.81-.1C25.24,157.89,24.11,158.91,23,160Z"/><path class="cls-5" d="M124.2,80.8a15.22,15.22,0,1,1,15.22-15.22A15.24,15.24,0,0,1,124.2,80.8Zm0-27.21a12,12,0,1,0,12,12A12,12,0,0,0,124.2,53.59Z"/><path class="cls-5" d="M142.84,55.22a1.57,1.57,0,0,0-.7-.9,1.78,1.78,0,0,0-1.16-.15,10.36,10.36,0,0,0-5.93,3.14,1.51,1.51,0,0,0,2.14,2.14,6.14,6.14,0,0,1,.51-.51l.29-.25.13-.11a6.8,6.8,0,0,1,1.16-.72l.3-.15.16-.07a4.12,4.12,0,0,1,.59-.22,10.18,10.18,0,0,1,1.45-.34,1.46,1.46,0,0,0,.9-.69A1.59,1.59,0,0,0,142.84,55.22Z"/><path class="cls-4" d="M319.21,73.06c3.38,4,8.68,3.86,13.23,6.1s8.56,5.61,12.42,9,7.82,7,12.44,9.49c2.54,1.34,5.39,4.09,8.28,3.58a8.28,8.28,0,0,0,5.64-4.15,10.47,10.47,0,0,0,1.34-4.45,9.32,9.32,0,0,0,3.21.54,7.26,7.26,0,0,0,6-3.09A9.08,9.08,0,0,0,383,83.28a19.26,19.26,0,0,0-3.34-7,63.38,63.38,0,0,0-26.49-22c.75-.26,1.51-.51,2.27-.74a44.25,44.25,0,0,1,15.88-1.32c2.71.18,5.4.48,8.1.77s5.44.71,8.11.09a7.57,7.57,0,0,0,5.28-4,6.91,6.91,0,0,0-.86-6.73,12.39,12.39,0,0,0-5.85-4.13,42.45,42.45,0,0,0-7.43-2.08,63.56,63.56,0,0,0-16.06-.95c-11,.67-21.75,3.68-32.35,6.69a1.35,1.35,0,0,0-1,1.52A7.19,7.19,0,0,0,327.74,48a8.66,8.66,0,0,0,2.41,5.43,9.49,9.49,0,0,0,.72.7,6.9,6.9,0,0,0-.29,1.08,1.46,1.46,0,0,0-.6.56l-.06.15c-4.73-1-10.46-.47-13.06,4.18C314.5,64.35,316.27,69.6,319.21,73.06Z"/><path class="cls-4" d="M297.55,70.15A5.56,5.56,0,0,0,303.76,75c5.26-.46,10.7,4,14.62,7.72,6.36,6-3.67,15.79-.53,23a9.52,9.52,0,0,0,5,5.13c4.72,1.85,9.22-2.66,11.78-6.28,5.11-7.23,6.21-17.72,2-25.79-2.64-5-6.77-8.83-11-12.32s-8.59-6.66-13.86-7.69a1.4,1.4,0,0,0-1.4.66A13.46,13.46,0,0,0,300,63.8,8.89,8.89,0,0,0,297.55,70.15Z"/><path class="cls-4" d="M270.18,73.38a15.87,15.87,0,0,0,5.54,6.31,44.23,44.23,0,0,0,2.34,9.76c.84,2.44,1.79,3.1,3.34,5.18a21.16,21.16,0,0,0,5.84,5.15c4.37,2.78,9.43,6.67,14.57,7.43,4.6.68,10.23.23,13.2-3.84,1.33-1.83,1.82-4.44.38-6.34a8.45,8.45,0,0,0-2.88-2.13c-1-.55-2-1.14-3-1.78-3.63-2.4-7.06-5.7-8.59-9.86a15.19,15.19,0,0,1-.88-6.56c1.22-.58,2.46-1.15,3.7-1.66,6.07-2.49,12.67-3.38,18.61-6.21s10.09-7.7,14.07-12.67c2-2.52,4.11-5.09,5.18-8.19a10.87,10.87,0,0,0,.57-4.08,1.53,1.53,0,0,0,.22-3c-1.66-.48-3.33-.89-5-1.25a172.38,172.38,0,0,0-21.51-2.78c-7-.58-14.05-1.13-21.07-.4-6.75.7-13.76,2.45-19.12,6.82A23.09,23.09,0,0,0,267.92,57,25.94,25.94,0,0,0,270.18,73.38Z"/><path class="cls-6" d="M273.91,77.22a30.28,30.28,0,0,0,.61,4.74c2.62,12.58,13.34,22.79,25.55,26.12a22.25,22.25,0,0,0,10.71.69,10.2,10.2,0,0,0,5.94-3.81c.93,3.26,3.5,6.22,7,6.75,3.69.57,7.21-1.4,9.7-4a23.14,23.14,0,0,0,5.15-8.93A29,29,0,0,0,337.05,78a39.78,39.78,0,0,0-13.78-15.86,1.53,1.53,0,0,0-2.07.54,1.56,1.56,0,0,0,.55,2.07,40.75,40.75,0,0,1,3.83,3A33.17,33.17,0,0,1,336,84.1a24.33,24.33,0,0,1-2.7,18.82c-1.65,2.6-4.06,5.09-7.17,5.77-2.9.63-5.41-1.35-6.35-4-1.31-3.71.1-7.52,1.2-11.07a16.09,16.09,0,0,0,.95-6,10.59,10.59,0,0,0-1.67-5c-2-3.13-5.24-5-8.63-6.38a37,37,0,0,0-5-1.66,7.91,7.91,0,0,0-4.62,0,4.6,4.6,0,0,0-3,3.93,10.35,10.35,0,0,0,1.11,4.93c1.3,3.13,2.8,6.38,5.43,8.63,2.31,2,5.28,2.69,7.78,4.38a4.39,4.39,0,0,1,1.2,6.3c-1.71,2.79-5.11,3.45-8.16,3.31a28.65,28.65,0,0,1-9.19-2.19c-10.83-4.35-19.67-14.81-20.27-26.71C276.84,75.28,273.82,75.28,273.91,77.22Zm41,16.68c-2.52-1.7-5.65-2.32-7.85-4.53a16,16,0,0,1-2.8-4.11,26.92,26.92,0,0,1-1.94-4.64c-.31-1.09-.53-2.64.7-3.14s2.83,0,4,.4c3.42,1.07,7,2.3,9.57,5A8.53,8.53,0,0,1,318.85,87a11.75,11.75,0,0,1-.72,5.65c-.34,1.13-.7,2.27-1,3.41A8.66,8.66,0,0,0,314.87,93.9Z"/><path class="cls-6" d="M336,81.2a1.54,1.54,0,0,1,2.07-.54,164.07,164.07,0,0,1,15.67,12.28c2.22,2,4.36,4.11,7,5.47,2.15,1.09,5,1.56,7.2.33s2.89-3.58,3-5.84a16.25,16.25,0,0,0-1.84-7.57C366.45,80,361.85,76,357,72.53c-6.29-4.46-12.8-8.64-19.2-12.93-1.61-1.08-.1-3.7,1.52-2.61,6.11,4.1,12.28,8.11,18.32,12.31C363,73,368.19,77.24,371.33,83c2.67,4.93,4.34,12.27.05,16.86a9.25,9.25,0,0,1-8.38,2.39c-3.16-.51-5.86-2.4-8.25-4.43-2.94-2.49-5.75-5.12-8.75-7.54s-6.21-4.82-9.44-7A1.55,1.55,0,0,1,336,81.2Z"/><path class="cls-6" d="M343.71,49a77.92,77.92,0,0,1,25.11,14.13,75.9,75.9,0,0,1,10.07,10.21c3.17,3.9,6.14,8.53,5.55,13.79a9.65,9.65,0,0,1-3.87,7,7.88,7.88,0,0,1-7.1,1.15,1.53,1.53,0,0,1-1.05-1.85,1.51,1.51,0,0,1,1.85-1.06A5,5,0,0,0,379,91.5a6.62,6.62,0,0,0,2.43-4.82c.32-4.53-2.43-8.42-5.19-11.75a74.93,74.93,0,0,0-19.91-16.86,73.33,73.33,0,0,0-13.47-6.13C341.07,51.33,341.86,48.41,343.71,49Z"/><circle cx="124.41" cy="69.87" r="4.3"/><circle cx="151.37" cy="51.99" r="4.3"/></g></g></svg>