<svg xmlns="http://www.w3.org/2000/svg" width="449.414" height="296.117" viewBox="0 0 449.414 296.117">
  <g id="Group_89" data-name="Group 89" transform="translate(-13.586 -3)">
    <g id="Group_88" data-name="Group 88" transform="translate(0 11)">
      <g id="Institute_Teacher" data-name="Institute Teacher" transform="translate(149.791 -3.1)">
        <g id="Group_43" data-name="Group 43" transform="translate(98.339 77.1)">
          <rect id="Rectangle_72" data-name="Rectangle 72" width="201.683" height="137.611" fill="#5f5b8b"/>
          <rect id="Rectangle_73" data-name="Rectangle 73" width="189.353" height="125.116" transform="translate(6.165 6.275)" fill="#342f59"/>
          <rect id="Rectangle_74" data-name="Rectangle 74" width="37.32" height="4.954" transform="translate(20.587 18.99)" fill="#fff"/>
          <rect id="Rectangle_75" data-name="Rectangle 75" width="12.77" height="4.954" transform="translate(20.587 29.724)" fill="#fff"/>
          <rect id="Rectangle_76" data-name="Rectangle 76" width="14.862" height="2.367" transform="translate(76.017 22.513)" fill="#fff"/>
          <rect id="Rectangle_77" data-name="Rectangle 77" width="5.064" height="2.367" transform="translate(76.017 27.632)" fill="#fff"/>
          <rect id="Rectangle_78" data-name="Rectangle 78" width="27.137" height="4.954" transform="translate(20.587 40.513)" fill="#fff"/>
        </g>
        <path id="Path_1024" data-name="Path 1024" d="M37.9,362.6H239.363V300.9H44.4a6.507,6.507,0,0,0-6.5,6.5Z" transform="translate(0 -100.61)" fill="#c66b29"/>
        <g id="Group_44" data-name="Group 44" transform="translate(46.377 209.702)" opacity="0.5">
          <path id="Path_1025" data-name="Path 1025" d="M53.905,370.292v-49.43a2.208,2.208,0,0,1,2.2-2.2H246.231V318H56.162a2.843,2.843,0,0,0-2.862,2.862v49.43Z" transform="translate(-53.3 -318)" fill="#c66b29"/>
        </g>
        <g id="Group_67" data-name="Group 67" transform="translate(100.21 90.319)">
          <g id="Group_66" data-name="Group 66" transform="translate(0 0)">
            <g id="Group_65" data-name="Group 65">
              <g id="Group_49" data-name="Group 49" transform="translate(0 61.97)">
                <g id="Group_47" data-name="Group 47">
                  <path id="Path_1026" data-name="Path 1026" d="M182.044,303.591c1.651,1.376,5.559-1.6,9.468-5.78-.826-3.082-1.6-5.89-2.2-8.312C182.594,298.362,180.943,302.656,182.044,303.591Z" transform="translate(-164.87 -247.774)" fill="#dbdbdb" fill-rule="evenodd"/>
                  <path id="Path_1027" data-name="Path 1027" d="M227.482,347.97c20.146,2.367,75.741-105.741,43.43-100.236-13.651,2.367-31.375,38.972-41.944,64.347-6.991-13.651-19.926-35.779-27.3-48.219-.22,2.807-4.954,9.853-9.8,15.082-3.853,4.183-7.761,7.156-9.468,5.78,0,0,7.981,10.734,10.458,17.229S214.326,345,224.729,347.2A9.782,9.782,0,0,0,227.482,347.97Z" transform="translate(-165.171 -228.907)" fill="#ef8465" fill-rule="evenodd"/>
                  <path id="Path_1028" data-name="Path 1028" d="M177.742,263.789c4.844-5.229,9.578-12.33,9.8-15.082-3.358-5.615-5.5-9.3-5.5-9.3-.605-2.147-10.238-23.229-12.605-21.412-.716.5-1.486,3.027,1.816,9.082l-5.009-4.018a48.71,48.71,0,0,1-4.9-4.293s-1.761-5.174-3.248-5.064c-1.486.165-.991,3.853.385,6.66a40.073,40.073,0,0,0,3.413,5.064c-1.651-1.321-3.633-2.917-4.128-3.413,0,0-1.761-7.486-3.193-7.706s-1.706,4.293-.165,9.688c0,0,1.651,3.8,7.541,7.211l-6.881-3.523s-1.321-6.826-3.082-6.165c-1.266.5-.991,3.963-.275,6.605-.881,1.376-.5,5.339.165,6.605.826,1.541,6.44,4.624,6.44,4.624a152.859,152.859,0,0,0,15.137,7.211s.771,3.413,2.147,8.917C176.145,257.9,176.916,260.707,177.742,263.789Z" transform="translate(-151.1 -213.697)" fill="#fdc0a1" fill-rule="evenodd"/>
                  <g id="Group_45" data-name="Group 45" transform="translate(0.27 11.415)">
                    <path id="Path_1029" data-name="Path 1029" d="M177.577,250.268a.2.2,0,0,1-.165-.055c-6.385-4.9-6.22-8.367-6.22-8.532s.165-.275.275-.22c.165,0,.275.11.22.275,0,.055-.11,3.358,6,8.037a.339.339,0,0,1,.055.385C177.742,250.268,177.687,250.268,177.577,250.268Zm-18-4.789c-.055,0-.11,0-.11-.055a38.222,38.222,0,0,1-5.009-3.358.286.286,0,0,1-.11-.22c-.055-.991-.385-3.688-1.266-4.459a.888.888,0,0,0-.5-.165.666.666,0,0,0-.5.33.275.275,0,0,1-.44-.33,1.071,1.071,0,0,1,.881-.55.945.945,0,0,1,.826.33c1.1.936,1.376,4.018,1.431,4.679a42.42,42.42,0,0,0,4.844,3.248.265.265,0,0,1,.11.33C159.743,245.424,159.632,245.479,159.577,245.479Zm4.954-8.532a.2.2,0,0,1-.165-.055s-1.156-.881-2.477-1.982a.275.275,0,0,1,.33-.44c1.321,1.046,2.477,1.982,2.477,1.982a.339.339,0,0,1,.055.385A.417.417,0,0,1,164.531,236.947Z" transform="translate(-151.591 -234.434)" fill="#eca06e"/>
                  </g>
                  <g id="Group_46" data-name="Group 46" transform="translate(63.5 82.987)">
                    <path id="Path_1030" data-name="Path 1030" d="M270.556,372.959c-.11,0-.22-.055-.22-.165-.771-1.927-2.092-4.624-3.853-7.981a.246.246,0,1,1,.44-.22c1.761,3.413,3.027,6.11,3.853,8.036a.245.245,0,0,1-.165.33Z" transform="translate(-266.461 -364.461)" fill="#dbdbdb"/>
                  </g>
                </g>
                <g id="Group_48" data-name="Group 48" transform="translate(34.425 49.949)">
                  <path id="Path_1031" data-name="Path 1031" d="M231.177,367.609a.2.2,0,0,1-.165-.055c-4.349-3.853-16.789-24.88-17.339-25.761a.283.283,0,1,1,.5-.275c.11.22,12.991,21.8,17.229,25.651a.266.266,0,0,1,0,.385A.416.416,0,0,1,231.177,367.609ZM238,328.583a.286.286,0,0,1-.22-.11c-2.147-3.963-9.3-16.513-13.431-23.614a.283.283,0,1,1,.5-.275c4.073,7.1,11.284,19.651,13.431,23.614a.265.265,0,0,1-.11.33A.426.426,0,0,1,238,328.583Z" transform="translate(-213.64 -304.44)" fill="#dbdbdb"/>
                </g>
              </g>
              <g id="Group_51" data-name="Group 51" transform="translate(96.791 78.325)">
                <path id="Path_1032" data-name="Path 1032" d="M330.326,271.091c-4.679,7.981-3.082,17.834.385,30.385,3.468,12.5,8.862,27.687,11.835,46.458,0,0,1.872,4.679,12.715,6.22a34.466,34.466,0,0,0,3.578.33,91.293,91.293,0,0,0,20.917-1.6c2.807-.5,5.835-1.1,9.082-1.872l5.5-16.568,9.523-28.843s16.844-37.871,13.211-47.944c-6.991-5.339-18.55-9.247-31.1-11.614-18-3.413-37.871-3.523-49.485-.275C334.73,254.8,331.812,266.908,330.326,271.091Z" transform="translate(-327.157 -243.409)" fill="#5a69f9" fill-rule="evenodd"/>
                <path id="Path_1033" data-name="Path 1033" d="M351.078,353.5c-18.495-73.76.826-109.7.826-109.7a68.625,68.625,0,0,0-15.8,2.312c-1.761,8.972-4.293,20.972-5.78,25.21-4.679,7.981-3.083,17.834.385,30.385,3.468,12.5,8.862,27.687,11.835,46.458C342.546,348.165,343.922,351.577,351.078,353.5Z" transform="translate(-327.156 -243.585)" fill="#ef8465" fill-rule="evenodd"/>
                <path id="Path_1034" data-name="Path 1034" d="M421.348,248.3c-6.33,12.5-17.284,43.705-14.917,108.053,2.642-.275,5.56-.661,8.7-1.211,2.807-.5,5.835-1.1,9.082-1.871l5.5-16.568,9.523-28.843s16.844-37.871,13.211-47.944C445.4,254.575,433.843,250.667,421.348,248.3Z" transform="translate(-362.528 -245.608)" fill="#ef8465" fill-rule="evenodd"/>
                <g id="Group_50" data-name="Group 50" transform="translate(0 27.386)">
                  <path id="Path_1035" data-name="Path 1035" d="M330.387,323.732a.281.281,0,0,1-.275-.22c-3.523-12.825-4.789-22.4-.22-30.219a.283.283,0,1,1,.5.275c-4.459,7.651-3.193,17.119.275,29.834a.267.267,0,0,1-.165.33Z" transform="translate(-326.942 -293.161)" fill="#dbdbdb"/>
                </g>
              </g>
              <g id="Group_59" data-name="Group 59" transform="translate(98.86)">
                <path id="Path_1036" data-name="Path 1036" d="M391.139,120.648c-7.871-8.477-21.412-21.082-37.375-19.376-18.99,2.037-9.247,40.788-23.064,62.531,7.156,7.156,25.651,12.44,43.375,11.174,22.128-1.6,39.357-8.642,37.816-22.238C411.175,146.133,394.827,124.556,391.139,120.648Z" transform="translate(-330.7 -101.115)" fill-rule="evenodd"/>
                <path id="Path_1037" data-name="Path 1037" d="M393.054,190.485l-2.917-33.742c9.082-17.394,5.725-36.164-13.541-37.1-9.853-.5-17.119,1.431-19.651,12.22-4.4,18.715-14.091,51.632,15.578,41.669l-3.853,15.192C368.339,199.622,390.192,197.971,393.054,190.485Z" transform="translate(-340.211 -109.413)" fill="#fdc0a1" fill-rule="evenodd"/>
                <path id="Path_1038" data-name="Path 1038" d="M395.435,206.9,382.5,227.927l3.853-15.192A34.693,34.693,0,0,0,395.435,206.9Z" transform="translate(-353.987 -148.671)" fill="#eca06e" fill-rule="evenodd"/>
                <path id="Path_1039" data-name="Path 1039" d="M402.883,141.559s3.248,1.816,11.835,1.376-.936-19.926-9.247-24.22-21.192-3.468-21.192-3.468C383.562,119.211,397.268,139.963,402.883,141.559Z" transform="translate(-354.774 -107.44)" fill-rule="evenodd"/>
                <g id="Group_53" data-name="Group 53" transform="translate(44.675 33.973)">
                  <ellipse id="Ellipse_290" data-name="Ellipse 290" cx="6.55" cy="5.835" rx="6.55" ry="5.835" transform="translate(0 13.063) rotate(-85.665)" fill="#fec79e"/>
                  <g id="Group_52" data-name="Group 52" transform="translate(2.718 3.578)">
                    <path id="Path_1040" data-name="Path 1040" d="M417.075,175.976h0a.3.3,0,0,1-.275-.275,9.09,9.09,0,0,1,4.238-6.33.275.275,0,1,1,.33.44,12.686,12.686,0,0,0-1.266.991c2.972.33,3.578,2.037,3.578,2.092a.267.267,0,0,1-.165.33c-.11.055-.275-.055-.33-.165,0-.055-.605-1.651-3.578-1.761a8.658,8.658,0,0,0-2.257,4.514C417.35,175.866,417.24,175.976,417.075,175.976Z" transform="translate(-416.8 -169.334)" fill="#eca06e"/>
                  </g>
                </g>
                <g id="Group_58" data-name="Group 58" transform="translate(16.596 26.001)">
                  <g id="Group_54" data-name="Group 54" transform="translate(3.385 9.384)">
                    <path id="Path_1041" data-name="Path 1041" d="M367,179.106l3.413-13.486a.281.281,0,1,1,.55.11l-2.7,12c0,.055,5.89-1.321,5.835-1.266h0" transform="translate(-367 -165.4)"/>
                  </g>
                  <g id="Group_55" data-name="Group 55" transform="translate(3 25.361)">
                    <path id="Path_1042" data-name="Path 1042" d="M368.612,198.65a3.336,3.336,0,0,1-2.2-1.376l-.11-.165s.055-.165.165-.11c1.982,1.321,5.449,1.486,10.293-2.532.055-.055.165-.055.165,0,.055.055,0,.11,0,.165C374.281,197.494,371.089,198.76,368.612,198.65Z" transform="translate(-366.3 -194.425)"/>
                  </g>
                  <path id="Path_1043" data-name="Path 1043" d="M390.231,159.03a1.339,1.339,0,0,0-1.156-1.541,1.32,1.32,0,0,0-1.486,1.211,1.332,1.332,0,1,0,2.642.33Z" transform="translate(-372.864 -152.453)" fill-rule="evenodd"/>
                  <g id="Group_56" data-name="Group 56" transform="translate(13.018 0.552)">
                    <path id="Path_1044" data-name="Path 1044" d="M384.885,151.967l-.22-.165-.165-.22a4.5,4.5,0,0,1,7.651-.165.483.483,0,0,1,.055.385.339.339,0,0,1-.385.055C388.023,148.884,386.372,150.536,384.885,151.967Zm-.22-.165Z" transform="translate(-384.5 -149.355)"/>
                  </g>
                  <path id="Path_1045" data-name="Path 1045" d="M365.932,156.418A1.4,1.4,0,0,0,364.5,155.1a1.326,1.326,0,0,0-1.211,1.486,1.4,1.4,0,0,0,1.431,1.321A1.326,1.326,0,0,0,365.932,156.418Z" transform="translate(-361.941 -151.382)" fill-rule="evenodd"/>
                  <g id="Group_57" data-name="Group 57">
                    <path id="Path_1046" data-name="Path 1046" d="M367.1,152.011c-.11,0-.165-.055-.22-.165,0,0-1.156-2.312-2.917-2.587a3.107,3.107,0,0,0-2.642,1.211.266.266,0,0,1-.385,0c-.11-.11-.11-.22,0-.385a3.489,3.489,0,0,1,3.3-1.706c1.982.275,3.138,2.862,3.082,3.193-.055.275,0,.275-.11.33C367.208,152.011,367.153,152.011,367.1,152.011Z" transform="translate(-360.85 -148.352)"/>
                  </g>
                </g>
              </g>
              <g id="Group_64" data-name="Group 64" transform="translate(58.561 90.758)">
                <g id="Group_61" data-name="Group 61" transform="translate(0 16.011)">
                  <path id="Path_1047" data-name="Path 1047" d="M267.1,299.318l23.064,13.706,3.963.5c-.5-8.532-23.229-18.22-23.229-18.22Z" transform="translate(-261.809 -295.181)" fill="#e3e3ff" fill-rule="evenodd"/>
                  <path id="Path_1048" data-name="Path 1048" d="M320.208,321.073l31.926-4.9L350.7,311c-28.128,2.587-34.4,9.578-34.4,9.578Z" transform="translate(-283.927 -302.239)" fill="#e3e3ff" fill-rule="evenodd"/>
                  <path id="Path_1049" data-name="Path 1049" d="M293.384,311.551l37.54-5.725a2.356,2.356,0,0,1,2.7,1.927l9.633,52.347a2.381,2.381,0,0,1-1.982,2.807L303.512,368.3a2.4,2.4,0,0,1-2.7-1.927L291.4,314.358a2.381,2.381,0,0,1,1.982-2.807Zm-23.5,40.9a2.351,2.351,0,0,0,1.156,1.541l23.614,13.486a2.367,2.367,0,0,0,3.523-2.532l-10.018-52.513a2.327,2.327,0,0,0-1.1-1.6H287l-25.871-15.413a2.426,2.426,0,0,0-2.642.11,2.361,2.361,0,0,0-.936,2.477Z" transform="translate(-257.488 -295.083)" fill="#a9a8ff" fill-rule="evenodd"/>
                  <path id="Path_1050" data-name="Path 1050" d="M304.7,326.273a1.987,1.987,0,0,1,.055-1.486,2.452,2.452,0,0,1,2.532-1.6l7.926.991a2.28,2.28,0,0,1,2.037,1.927l9.413,52.017a2.482,2.482,0,0,1-.55,2.037,2.349,2.349,0,0,1-1.927.771l-7.321-.5a2.4,2.4,0,0,1-2.2-1.927Z" transform="translate(-278.661 -307.713)" fill="#a9a8ff" fill-rule="evenodd"/>
                  <g id="Group_60" data-name="Group 60" transform="translate(30.322 25.371)">
                    <path id="Path_1051" data-name="Path 1051" d="M325.414,383.958h0l-4.128-.055a.275.275,0,0,1,0-.55l4.128.055a.26.26,0,0,1,.275.275C325.634,383.848,325.524,383.958,325.414,383.958Zm-7.046-41.779h0l-5.559-.5c-.165,0-.275-.165-.22-.275,0-.165.165-.275.275-.22l5.5.5c.165,0,.275.165.22.275A.237.237,0,0,1,318.368,342.179Z" transform="translate(-312.574 -341.174)" fill="#8380fc"/>
                  </g>
                </g>
                <g id="Group_63" data-name="Group 63" transform="translate(31.55)">
                  <path id="Path_1052" data-name="Path 1052" d="M339.627,368.773a42.027,42.027,0,0,1-5.064-3.633c-1.156-1.156-5.229-4.734-5.67-5.5-.5-.771-3.027-6.44-4.569-5.78-1.541.716,1.046,6.5,1.321,7.376s3.633,4.679,5.174,6.22l-6.055-5.89s-4.018-8.7-5.229-7.321c-1.266,1.376,1.046,8.7,2.367,10.348,1.266,1.706,5.56,6.55,5.56,6.55l-6.33-5.284s-2.092-7.156-3.523-6.826-.991,6.55.936,9.358,6.55,5.78,6.55,5.78l-5.945-3.138s-2.532-4.679-3.8-4.128-.165,3.743,1.541,6.055a30.4,30.4,0,0,0,5.67,4.954,89.009,89.009,0,0,0,17.559,8.422s4.018,2.2,10.4,5.394c1.927.991,4.128,2.037,6.5,3.138a49.2,49.2,0,0,0,1.816-8.587c.661-6.055-.44-6.991-.826-7.1h-.165c-6-.826-9.908-1.321-9.908-1.321s-7.816-22.348-9.523-21.082S339.627,368.773,339.627,368.773Z" transform="translate(-314.805 -305.47)" fill="#fdc0a1" fill-rule="evenodd"/>
                  <path id="Path_1053" data-name="Path 1053" d="M379.4,436.791c1.816-.165,4.128-5.394,5.725-10.954-2.367-1.1-4.514-2.2-6.5-3.138,0,0-2.7,11.669.055,13.871a1.152,1.152,0,0,0,.33.22C379.019,436.736,379.185,436.736,379.4,436.791Z" transform="translate(-342.968 -336.443)" fill="#dbdbdb" fill-rule="evenodd"/>
                  <path id="Path_1054" data-name="Path 1054" d="M388.641,346.8a54.861,54.861,0,0,1-1.816,8.587c-1.651,5.5-3.963,10.789-5.725,10.954,2.147.22,14.036,1.431,19.431,2.642,5.174,1.156,36.219,9.3,54.384,6.605a24.206,24.206,0,0,0,7.6-2.2c16.734-9.3-13.376-99.355-21.247-105.52s-21.688,2.532-19.431,31.32c6.5,16.844,12.991,35.889,20.036,50.861-14.532-4.4-39.907-8.367-54-10.348C388.2,339.813,389.247,340.749,388.641,346.8Z" transform="translate(-344.608 -265.996)" fill="#ef8465" fill-rule="evenodd"/>
                  <g id="Group_62" data-name="Group 62" transform="translate(42.767 32.953)">
                    <path id="Path_1055" data-name="Path 1055" d="M453.71,379.662h-.11a55.2,55.2,0,0,0-6.936-2.532.261.261,0,1,1,.165-.5c.055,0,.11.055.165.055h0a53.691,53.691,0,0,1,6.826,2.477.265.265,0,0,1,.11.33l-.055.055h0C453.875,379.662,453.765,379.662,453.71,379.662Zm-30.164-7.816h0c-11.339-2.147-23.009-3.853-30.825-4.954-.165,0-.22-.165-.22-.275,0-.165.165-.22.275-.22,7.816,1.1,19.486,2.862,30.825,4.954.165,0,.22.165.22.33C423.82,371.735,423.71,371.845,423.545,371.845ZM433.123,343c-.11,0-.22-.055-.22-.165l-.661-1.761c-1.816-4.954-3.743-10.073-5.615-14.862a.261.261,0,1,1,.5-.165c1.871,4.844,3.743,9.963,5.615,14.862l.661,1.761a.245.245,0,0,1-.165.33Z" transform="translate(-392.5 -325.862)" fill="#dbdbdb"/>
                  </g>
                </g>
              </g>
            </g>
          </g>
        </g>
        <g id="Group_80" data-name="Group 80" transform="translate(84.688 187.96)">
          <path id="Path_1056" data-name="Path 1056" d="M153.5,284.665H125.982a3.077,3.077,0,0,1-3.082-3.083h0a3.077,3.077,0,0,1,3.082-3.082H153.5Z" transform="translate(-122.9 -278.5)" fill="#f73536"/>
          <g id="Group_73" data-name="Group 73" transform="translate(4.624 0.936)" opacity="0.17">
            <g id="Group_68" data-name="Group 68">
              <rect id="Rectangle_79" data-name="Rectangle 79" width="25.981" height="0.385" fill="#fff"/>
            </g>
            <g id="Group_69" data-name="Group 69" transform="translate(0 0.881)">
              <rect id="Rectangle_80" data-name="Rectangle 80" width="25.981" height="0.385" fill="#fff"/>
            </g>
            <g id="Group_70" data-name="Group 70" transform="translate(0 1.761)">
              <rect id="Rectangle_81" data-name="Rectangle 81" width="25.981" height="0.385" fill="#fff"/>
            </g>
            <g id="Group_71" data-name="Group 71" transform="translate(0 2.587)">
              <rect id="Rectangle_82" data-name="Rectangle 82" width="25.981" height="0.385" fill="#fff"/>
            </g>
            <g id="Group_72" data-name="Group 72" transform="translate(0 3.468)">
              <rect id="Rectangle_83" data-name="Rectangle 83" width="25.981" height="0.385" fill="#fff"/>
            </g>
          </g>
          <path id="Path_1057" data-name="Path 1057" d="M123,295.765h27.522a3.077,3.077,0,0,0,3.083-3.082h0a3.077,3.077,0,0,0-3.083-3.083H123Z" transform="translate(-122.945 -283.49)" fill="#0f41a3"/>
          <g id="Group_79" data-name="Group 79" transform="translate(0.055 7.046)" opacity="0.17">
            <g id="Group_74" data-name="Group 74">
              <rect id="Rectangle_84" data-name="Rectangle 84" width="25.981" height="0.385" fill="#fff"/>
            </g>
            <g id="Group_75" data-name="Group 75" transform="translate(0 0.881)">
              <rect id="Rectangle_85" data-name="Rectangle 85" width="25.981" height="0.385" fill="#fff"/>
            </g>
            <g id="Group_76" data-name="Group 76" transform="translate(0 1.761)">
              <rect id="Rectangle_86" data-name="Rectangle 86" width="25.981" height="0.385" fill="#fff"/>
            </g>
            <g id="Group_77" data-name="Group 77" transform="translate(0 2.587)">
              <rect id="Rectangle_87" data-name="Rectangle 87" width="25.981" height="0.385" fill="#fff"/>
            </g>
            <g id="Group_78" data-name="Group 78" transform="translate(0 3.468)">
              <rect id="Rectangle_88" data-name="Rectangle 88" width="25.981" height="0.385" fill="#fff"/>
            </g>
          </g>
        </g>
        <g id="Group_87" data-name="Group 87" transform="translate(48.634 161.497)">
          <circle id="Ellipse_291" data-name="Ellipse 291" cx="14.146" cy="14.146" r="14.146" transform="translate(0.375 27.535) rotate(-76.714)" fill="#0f41a3"/>
          <g id="Group_81" data-name="Group 81" transform="translate(0 0.977)">
            <path id="Path_1058" data-name="Path 1058" d="M74.794,265.612a16.739,16.739,0,0,1-6.77-1.376,17.134,17.134,0,0,1-5.5-3.743A17.212,17.212,0,0,1,57.4,248.218a16.739,16.739,0,0,1,1.376-6.77,17.134,17.134,0,0,1,3.743-5.5,17.754,17.754,0,0,1,5.5-3.743l.605,1.376a16.432,16.432,0,0,0-5.064,3.413,16.1,16.1,0,0,0-3.413,5.064,15.839,15.839,0,0,0-1.266,6.165,15.637,15.637,0,0,0,1.266,6.165,16.432,16.432,0,0,0,3.413,5.064,16.1,16.1,0,0,0,5.064,3.413,15.838,15.838,0,0,0,6.165,1.266,15.636,15.636,0,0,0,6.165-1.266,16.432,16.432,0,0,0,5.064-3.413l1.046,1.046a17.753,17.753,0,0,1-5.5,3.743A17.121,17.121,0,0,1,74.794,265.612Z" transform="translate(-57.4 -232.2)" fill="#f73536"/>
          </g>
          <g id="Group_82" data-name="Group 82" transform="translate(16.623 33.618)">
            <rect id="Rectangle_89" data-name="Rectangle 89" width="1.486" height="4.459" fill="#f73536"/>
          </g>
          <g id="Group_83" data-name="Group 83" transform="translate(12.935 37.306)">
            <rect id="Rectangle_90" data-name="Rectangle 90" width="8.807" height="1.486" fill="#f73536"/>
          </g>
          <g id="Group_86" data-name="Group 86" transform="translate(3.193 2.849)">
            <g id="Group_84" data-name="Group 84" transform="translate(0 12.508)">
              <path id="Path_1059" data-name="Path 1059" d="M68.209,265.191c.44-1.266.881-2.532,1.266-3.743a.952.952,0,0,0,.055-.55c-.11-.33-.605-.385-.936-.33a1.151,1.151,0,0,1-1.046-.165c-.275-.385.055-.936-.11-1.376-.33-1.156-2.7-.661-4.183-.11a8.129,8.129,0,0,0-.055,1.156,14.151,14.151,0,0,0,1.651,6.605,2.639,2.639,0,0,0,2.037.165,1.677,1.677,0,0,0,.716-.5A3.9,3.9,0,0,0,68.209,265.191Z" transform="translate(-63.2 -258.323)" fill="#2857b8"/>
            </g>
            <g id="Group_85" data-name="Group 85" transform="translate(9.468)">
              <path id="Path_1060" data-name="Path 1060" d="M87.005,247.435c.275.11.661-.055.881.11s.22.5.33.771c.33.826,1.651.716,2.312.11a19.937,19.937,0,0,0,1.486-2.257,11.918,11.918,0,0,1,2.972-2.2,6.186,6.186,0,0,0,1.927-2.037,14.182,14.182,0,0,0-11.78-6.33,13.652,13.652,0,0,0-4.238.661,6.151,6.151,0,0,0-.5,2.422,1.229,1.229,0,0,0,.165.771,1.4,1.4,0,0,0,.826.5c.936.33,1.872.605,2.752.936.716.22,1.541.55,1.761,1.266.275.826-.33,1.816.055,2.532a5.586,5.586,0,0,1,.5.716,2.444,2.444,0,0,1,.055,1.1C86.565,246.884,86.675,247.324,87.005,247.435Z" transform="translate(-80.4 -235.6)" fill="#2857b8"/>
            </g>
          </g>
        </g>
      </g>
      <g id="Icon_4" data-name="Icon 4" transform="translate(105.471 175.49)">
        <g id="Layer_1" data-name="Layer 1" transform="translate(0 0)">
          <path id="Path_573" data-name="Path 573" d="M25.028,32.816c-6.409,0-11.444-10.343-11.444-20.113a16.1,16.1,0,0,1,.086-1.96.7.7,0,0,0-.157-.5.687.687,0,0,0-.429-.229A1.345,1.345,0,0,1,11.838,8.7V3.362A.644.644,0,0,0,11.18,2.7H7.089A1.431,1.431,0,0,1,5.73,1.345,1.431,1.431,0,0,1,7.089,0H45.241a1.345,1.345,0,0,1,1.345,1.345v11.2a1.345,1.345,0,1,1-2.689,0V3.362a.658.658,0,0,0-.672-.658H39.218a.644.644,0,0,0-.658.658V8.7a1.345,1.345,0,0,1-1.345,1.345h-.172a.615.615,0,0,0-.486.215.629.629,0,0,0-.172.5c0,.744.086,1.431.086,1.946C36.486,22.473,31.451,32.816,25.028,32.816Zm-7.954-22.8a.658.658,0,0,0-.658.587c0,.672-.1,1.431-.1,2.074,0,7.982,3.977,17.424,8.712,17.424S33.8,20.657,33.8,12.674a19.727,19.727,0,0,0-.114-2.074.658.658,0,0,0-.644-.587ZM15.114,2.7a.658.658,0,0,0-.658.658V6.681a.644.644,0,0,0,.658.658H35.141a.658.658,0,0,0,.672-.658V3.362a.658.658,0,0,0-.658-.658Z" transform="translate(2.486 0)" fill="#abb1fe"/>
          <path id="Path_574" data-name="Path 574" d="M1.522,52.684A1.431,1.431,0,0,1,.177,51.44C.006,49.723-.924,34.574,3.7,29.6a4.992,4.992,0,0,1,3.719-1.7H8.846c2.861,0,5.307-.257,7.525-3.448a1.431,1.431,0,0,1,1.116-.587,1.33,1.33,0,0,1,.758.243A1.431,1.431,0,0,1,18.6,26c-2.861,4.048-6.294,4.606-9.627,4.606H7.43a2.275,2.275,0,0,0-1.7.815C3.153,34.2,2.552,42.871,2.867,49.351a.644.644,0,0,0,.658.629H9.533a.658.658,0,0,0,.658-.658V41.24a1.359,1.359,0,1,1,2.7,0v8.025a.644.644,0,0,0,.658.658h28.01a.658.658,0,0,0,.658-.658V41.24a1.359,1.359,0,1,1,2.7,0v8.025a.644.644,0,0,0,.658.658h6.137a.658.658,0,0,0,.658-.629c.258-6.537-.343-15.163-2.861-17.924a2.246,2.246,0,0,0-1.745-.83H46.2c-3.347,0-6.824-.558-9.642-4.606a1.431,1.431,0,0,1,.343-1.86,1.33,1.33,0,0,1,1.874.343c2.217,3.176,4.735,3.448,7.553,3.448h1.431A5.021,5.021,0,0,1,51.5,29.6c4.621,4.978,3.634,20.127,3.5,21.844a1.345,1.345,0,0,1-1.345,1.245Z" transform="translate(0.014 10.259)" fill="#abb1fe"/>
          <path id="Path_575" data-name="Path 575" d="M33.755,11.62a1.345,1.345,0,0,0-1.345,1.345v2.06a1.345,1.345,0,1,0,2.689,0v-2.06A1.345,1.345,0,0,0,33.755,11.62Z" transform="translate(13.972 5.003)" fill="#abb1fe"/>
        </g>
      </g>
      <g id="Icon_3" data-name="Icon 3" transform="translate(13.586 115.909)">
        <g id="Layer_1-2" data-name="Layer 1">
          <path id="Path_576" data-name="Path 576" d="M61.6,0H1.345A1.345,1.345,0,0,0,0,1.345V45.533a1.345,1.345,0,0,0,1.345,1.345H27.452a1.359,1.359,0,1,0,0-2.7H3.362a.644.644,0,0,1-.658-.658V3.362A.644.644,0,0,1,3.362,2.7H59.581a.644.644,0,0,1,.658.658V29.469a1.359,1.359,0,0,0,2.7,0V1.345A1.345,1.345,0,0,0,61.6,0Z" fill="#abb1fe"/>
          <path id="Path_577" data-name="Path 577" d="M18.157,13.934H30.2a1.359,1.359,0,0,0,0-2.7H18.157a1.359,1.359,0,0,0,0,2.7Z" transform="translate(7.292 4.835)" fill="#abb1fe"/>
          <path id="Path_578" data-name="Path 578" d="M31.44,16.787A1.345,1.345,0,0,0,30.1,15.442H14.031a1.359,1.359,0,1,0,0,2.7H30.1A1.431,1.431,0,0,0,31.44,16.787Z" transform="translate(5.396 6.645)" fill="#abb1fe"/>
          <path id="Path_579" data-name="Path 579" d="M24.065,19.652H14.051a1.359,1.359,0,1,0,0,2.7H24.065a1.359,1.359,0,0,0,0-2.7Z" transform="translate(5.404 8.458)" fill="#abb1fe"/>
          <path id="Path_580" data-name="Path 580" d="M54.472,42.728a.615.615,0,0,1,0-.629,13.347,13.347,0,0,0-1.817-16.379.644.644,0,0,1-.2-.458V12.7a1.345,1.345,0,0,0-1-1.3,6.652,6.652,0,0,1-4.778-4.778,1.345,1.345,0,0,0-1.3-1H12.7a1.345,1.345,0,0,0-1.3,1A6.652,6.652,0,0,1,6.621,11.4a1.345,1.345,0,0,0-1,1.3V29.338a1.345,1.345,0,0,0,1,1.3A6.623,6.623,0,0,1,11.4,35.418a1.345,1.345,0,0,0,1.3,1H29.209a.658.658,0,0,1,.658.572A13.39,13.39,0,0,0,31.713,42.1a.587.587,0,0,1,0,.629L25.8,54.558A1.345,1.345,0,0,0,27.021,56.5a1.187,1.187,0,0,0,.315,0l6.695-1.7h.157a.629.629,0,0,1,.544.286l3.233,4.849a1.431,1.431,0,0,0,1.1.587h.086a1.345,1.345,0,0,0,1.116-.744l1.9-3.791a.644.644,0,0,1,.544-.358h0a.644.644,0,0,1,.544.3l2.675,4.005a1.345,1.345,0,0,0,1.116.6,1.43,1.43,0,0,0,1.13-.6l3.233-4.849a.658.658,0,0,1,.544-.286h.157l6.666,1.659a1.3,1.3,0,0,0,.329,0,1.33,1.33,0,0,0,1.044-.5,1.431,1.431,0,0,0,.157-1.431ZM31.341,28.666v.129a.673.673,0,0,1,0,.143c-.114.229-.272.544-.415.858l-.086.243a.872.872,0,0,0-.072.172c-.1.272-.2.5-.272.758a3.1,3.1,0,0,0-.1.343v.143a6.051,6.051,0,0,0-.186.73,3.1,3.1,0,0,1-.1.5h0v.2a1.287,1.287,0,0,0,0,.229.672.672,0,0,1-.658.572H14.132a.672.672,0,0,1-.615-.4A9.284,9.284,0,0,0,8.71,28.48a.672.672,0,0,1-.4-.615V14.132a.672.672,0,0,1,.4-.615A9.284,9.284,0,0,0,13.516,8.71a.672.672,0,0,1,.615-.4H43.972a.672.672,0,0,1,.615.4,9.284,9.284,0,0,0,4.806,4.806.672.672,0,0,1,.4.615v8.254a.644.644,0,0,1-.315.544.629.629,0,0,1-.358.114.644.644,0,0,1-.272-.072h-.114l-1-.415h-.129l-.215-.072c-.3-.1-.629-.2-1.044-.3H46c-.3-.072-.658-.129-1.087-.186h-.329a12.875,12.875,0,0,0-1.431,0H41.412l-.916-.1-.329.086H40.01l-.758.2-.372.129h-.114l-.7.257-.486.215-.644.315-.472.257-.615.372-.429.286c-.2.143-.4.286-.587.443h0l-.315.257c-.186.157-.372.315-.572.515l-.114.1-.229.215-.558.615-.114.129-.157.186c-.2.243-.4.515-.629.844l-.072.086h0C31.77,27.936,31.555,28.308,31.341,28.666Zm11.144,20.7-3.047,6.108a.672.672,0,0,1-.558.372h0a.672.672,0,0,1-.544-.3L36.2,52.4a1.431,1.431,0,0,0-1.13-.6h-.329l-3.791.944H30.8a.658.658,0,0,1-.587-.958l3.133-6.323A.644.644,0,0,1,33.8,45.1h.129a.6.6,0,0,1,.429.172,13.418,13.418,0,0,0,7.567,3.147.644.644,0,0,1,.515.329.629.629,0,0,1,.043.615Zm.629-3.591a10.729,10.729,0,0,1,0-21.458,10.228,10.228,0,0,1,2.031.215,5.479,5.479,0,0,1,.615.157l.257.072h.172a6.809,6.809,0,0,1,.873.272c.286.129.558.257.815.4l.329.172a6.623,6.623,0,0,1,.615.343c.329.2.615.443.9.658h0a10.657,10.657,0,0,1-6.638,19.026ZM55.988,52.57a.687.687,0,0,1-.515.243H55.3l-3.791-.944a1.3,1.3,0,0,0-.329,0,1.345,1.345,0,0,0-1.116.6l-2.418,3.448a.658.658,0,0,1-1.1,0l-2.246-3.4a.672.672,0,0,1,0-.658l1.731-3.462a.715.715,0,0,1,.429-.358A13.418,13.418,0,0,0,51.84,45.26a.6.6,0,0,1,.429-.172H52.4a.644.644,0,0,1,.458.358l3.2,6.394a.687.687,0,0,1-.114.73Z" transform="translate(2.42 2.42)" fill="#abb1fe"/>
          <path id="Path_581" data-name="Path 581" d="M33.444,22.46a5.364,5.364,0,1,0,5.364,5.364,5.364,5.364,0,0,0-5.364-5.364Zm0,8.04a2.675,2.675,0,1,1,2.661-2.675A2.675,2.675,0,0,1,33.444,30.5Z" transform="translate(12.089 9.669)" fill="#abb1fe"/>
        </g>
      </g>
      <g id="Icon_2" data-name="Icon 2" transform="translate(104.128 21.057)">
        <g id="Layer_1-3" data-name="Layer 1" transform="translate(0 0)">
          <path id="Path_582" data-name="Path 582" d="M45.927,6.022a.658.658,0,0,1-.658-.658V1.345A1.431,1.431,0,0,0,43.839,0H39.833A1.431,1.431,0,0,0,38.4,1.345v4.02a.658.658,0,0,1-.658.658A1.345,1.345,0,0,0,36.4,7.367V49.539A1.431,1.431,0,0,0,37.745,50.9a.644.644,0,0,1,.658.658v4.02a1.431,1.431,0,0,0,1.431,1.345.658.658,0,0,1,.658.658V61.6a1.345,1.345,0,0,0,2.689,0v-4.02a.658.658,0,0,1,.658-.658,1.431,1.431,0,0,0,1.431-1.345V51.5a.644.644,0,0,1,.658-.658,1.431,1.431,0,0,0,1.345-1.359V7.367A1.345,1.345,0,0,0,45.927,6.022ZM44.5,47.507a.658.658,0,0,1-.658.658H39.833a.672.672,0,0,1-.672-.658V9.384a.658.658,0,0,1,.672-.658h4.005a.644.644,0,0,1,.658.658Z" transform="translate(15.671 0)" fill="#abb1fe"/>
          <path id="Path_583" data-name="Path 583" d="M17,5.62H6.985A1.345,1.345,0,0,0,5.64,6.965V16.978a1.345,1.345,0,0,0,1.345,1.345H17a1.345,1.345,0,0,0,1.345-1.345V6.965A1.345,1.345,0,0,0,17,5.62Zm-1.359,9.37a.644.644,0,0,1-.658.658H9.016a.658.658,0,0,1-.658-.658V9.025a.672.672,0,0,1,.658-.715h6.022a.658.658,0,0,1,.658.658Z" transform="translate(2.428 2.42)" fill="#abb1fe"/>
          <path id="Path_584" data-name="Path 584" d="M17,29.48H6.985A1.345,1.345,0,0,0,5.64,30.825V40.838a1.345,1.345,0,0,0,1.345,1.345H17a1.345,1.345,0,0,0,1.345-1.345V30.825A1.345,1.345,0,0,0,17,29.48Zm-1.359,9.327a.658.658,0,0,1-.658.658H9.016a.672.672,0,0,1-.715-.658V32.842a.658.658,0,0,1,.715-.658h6.022a.644.644,0,0,1,.658.658Z" transform="translate(2.428 12.692)" fill="#abb1fe"/>
          <path id="Path_585" data-name="Path 585" d="M45.533,0H1.345A1.345,1.345,0,0,0,0,1.345V61.6a1.345,1.345,0,0,0,1.345,1.345H45.533A1.345,1.345,0,0,0,46.878,61.6V1.345A1.345,1.345,0,0,0,45.533,0ZM44.174,59.581a.644.644,0,0,1-.658.658H3.362a.644.644,0,0,1-.658-.658V3.362A.644.644,0,0,1,3.362,2.7H43.516a.644.644,0,0,1,.658.658Z" transform="translate(0 0)" fill="#abb1fe"/>
          <path id="Path_586" data-name="Path 586" d="M29.591,12.63H19.577a1.359,1.359,0,0,0,0,2.7H29.591a1.359,1.359,0,0,0,0-2.7Z" transform="translate(7.903 5.437)" fill="#abb1fe"/>
          <path id="Path_587" data-name="Path 587" d="M29.591,23.86H19.577a1.359,1.359,0,0,0,0,2.7H29.591a1.359,1.359,0,0,0,0-2.7Z" transform="translate(7.903 10.272)" fill="#abb1fe"/>
          <path id="Path_588" data-name="Path 588" d="M29.628,36.5H19.615a1.345,1.345,0,0,0,0,2.689H29.628a1.345,1.345,0,0,0,0-2.689Z" transform="translate(7.866 15.714)" fill="#abb1fe"/>
          <path id="Path_589" data-name="Path 589" d="M10.107,28.661l.1.086h.229a1.345,1.345,0,0,0,.443.086h0a1.43,1.43,0,0,0,.515-.114h0l.114-.086.143-.086h.086l.086-.114a.315.315,0,0,1,.129-.114l5.965-7.968a1.345,1.345,0,0,0-.272-1.888,1.259,1.259,0,0,0-.8-.272,1.431,1.431,0,0,0-1.087.544L11.28,25.071a.687.687,0,0,1-.472.257h0a.687.687,0,0,1-.515-.257L7.918,22.682a1.431,1.431,0,0,0-1.917,0A1.431,1.431,0,0,0,6,24.6l3.977,3.963Z" transform="translate(2.425 7.831)" fill="#abb1fe"/>
        </g>
      </g>
      <g id="Icon_1" data-name="Icon 1" transform="translate(215.493 -8)">
        <g id="Layer_1-4" data-name="Layer 1">
          <path id="Path_590" data-name="Path 590" d="M42.515,50.9H61.6a1.431,1.431,0,0,0,1.345-1.359V1.345A1.345,1.345,0,0,0,61.6,0H39.511A9.484,9.484,0,0,0,32,3.963a.672.672,0,0,1-1.059,0A9.484,9.484,0,0,0,23.432,0H1.345A1.345,1.345,0,0,0,0,1.345V49.539A1.431,1.431,0,0,0,1.345,50.9H23.432a1.359,1.359,0,1,0,0-2.7H3.4a.658.658,0,0,1-.658-.658v-4.02a.658.658,0,0,1,.615-.6H23.389A7.038,7.038,0,0,1,30.084,49.6a1.345,1.345,0,1,0,2.689,0,7.038,7.038,0,0,1,6.738-6.681H59.538a.658.658,0,0,1,.658.658v4.02a.658.658,0,0,1-.658.658H42.515a4.363,4.363,0,1,0,0,8.726H58.651a1.659,1.659,0,0,1,0,3.319H20.428a1.359,1.359,0,0,0,0,2.7H58.651a4.363,4.363,0,0,0,0-8.726H42.515a1.659,1.659,0,0,1,0-3.319ZM30.127,41.685a.629.629,0,0,1-.372.587.758.758,0,0,1-.286.072.615.615,0,0,1-.415-.143,9.112,9.112,0,0,0-5.622-2.031H3.4a.658.658,0,0,1-.658-.658V3.362A.644.644,0,0,1,3.4,2.7H23.432a7.038,7.038,0,0,1,6.695,6.681Zm29.454-1.516H39.554A9.112,9.112,0,0,0,33.932,42.2a.658.658,0,0,1-.415.143.7.7,0,0,1-.286-.072.629.629,0,0,1-.372-.587V9.384A7.038,7.038,0,0,1,39.554,2.7H59.581a.644.644,0,0,1,.658.658V39.511A.658.658,0,0,1,59.581,40.169Z" fill="#abb1fe"/>
          <path id="Path_591" data-name="Path 591" d="M9.775,8.309H15.8a1.345,1.345,0,0,0,0-2.689H9.775a1.345,1.345,0,0,0,0,2.689Z" transform="translate(3.629 2.42)" fill="#abb1fe"/>
          <path id="Path_592" data-name="Path 592" d="M20.975,11.232H6.927a1.359,1.359,0,0,0,0,2.7H20.975a1.359,1.359,0,1,0,0-2.7Z" transform="translate(2.457 4.833)" fill="#abb1fe"/>
          <path id="Path_593" data-name="Path 593" d="M21.012,16.85H6.965a1.345,1.345,0,0,0,0,2.689H21.012a1.345,1.345,0,0,0,0-2.689Z" transform="translate(2.42 7.254)" fill="#abb1fe"/>
          <path id="Path_594" data-name="Path 594" d="M20.975,22.462H6.927a1.359,1.359,0,0,0,0,2.7H20.975a1.359,1.359,0,1,0,0-2.7Z" transform="translate(2.457 9.667)" fill="#abb1fe"/>
          <path id="Path_595" data-name="Path 595" d="M42.119,11.232H28.071a1.359,1.359,0,1,0,0,2.7H42.119a1.359,1.359,0,0,0,0-2.7Z" transform="translate(11.44 4.833)" fill="#abb1fe"/>
          <path id="Path_596" data-name="Path 596" d="M42.072,16.85H28.025a1.345,1.345,0,0,0,0,2.689H42.072a1.345,1.345,0,0,0,0-2.689Z" transform="translate(11.486 7.254)" fill="#abb1fe"/>
          <path id="Path_597" data-name="Path 597" d="M36.1,22.462H28.071a1.359,1.359,0,1,0,0,2.7H36.1a1.359,1.359,0,0,0,0-2.7Z" transform="translate(11.44 9.667)" fill="#abb1fe"/>
          <path id="Path_598" data-name="Path 598" d="M30.825,8.309h6.022a1.345,1.345,0,1,0,0-2.689H30.825a1.345,1.345,0,1,0,0,2.689Z" transform="translate(12.692 2.42)" fill="#abb1fe"/>
        </g>
      </g>
    </g>
  </g>
</svg>
