<?xml version="1.0" encoding="utf-8"?>
<!-- Generator: Adobe Illustrator 24.3.0, SVG Export Plug-In . SVG Version: 6.00 Build 0)  -->
<svg version="1.1" id="Layer_1" xmlns="http://www.w3.org/2000/svg" xmlns:xlink="http://www.w3.org/1999/xlink" x="0px" y="0px"
	 viewBox="0 0 280.4 636.3" style="enable-background:new 0 0 280.4 636.3;" xml:space="preserve">
<style type="text/css">
	.st0{fill-rule:evenodd;clip-rule:evenodd;fill:#FEC79E;}
	.st1{fill-rule:evenodd;clip-rule:evenodd;fill:#C8C7FF;}
	.st2{fill-rule:evenodd;clip-rule:evenodd;fill:#FFFFFF;}
	.st3{fill:#6C6AE6;}
	.st4{fill-rule:evenodd;clip-rule:evenodd;fill:#FBCB70;}
	.st5{fill-rule:evenodd;clip-rule:evenodd;fill:#EE726E;}
	.st6{fill:#ECA06E;}
	.st7{fill:#C14848;}
	.st8{fill-rule:evenodd;clip-rule:evenodd;fill:#ECA06E;}
	.st9{fill-rule:evenodd;clip-rule:evenodd;}
	.st10{fill:#FEC79E;}
	.st11{fill-rule:evenodd;clip-rule:evenodd;fill:#C14848;}
	.st12{fill-rule:evenodd;clip-rule:evenodd;fill:#E3E3FF;}
	.st13{fill-rule:evenodd;clip-rule:evenodd;fill:#6C6AE6;}
	.st14{fill:#E3E3FF;}
</style>
<g id="Layer_2_1_">
	<g id="Layer_1-2">
		<path class="st0" d="M94.9,557.7l1.6,17.3c1.6-0.5,3.4-0.7,5.1-0.5l0,0c0.6,0,1.1,0.1,1.5,0.2l0,0c1.8,0.2,3.6,0.5,5.3,1
			c1.3-0.1,2.1-1.2,2.9-2.4c1.1-1.5,2-3.3,3.6-3.2l-0.5-17.1L94.9,557.7z"/>
		<path class="st1" d="M94.8,576.5c-0.8,1.3-8.1,14-13.2,21.4c2.3-0.2,6.1-0.5,8.1,0c0,0,10.7-14.6,17-22.5
			C103.4,574.5,96.4,573.5,94.8,576.5z"/>
		<path class="st2" d="M108.4,593.8c-1.9,1.2-4,3.3-6.7,5.7c-3.8,3.6-7.9,6.7-12.4,9.5c-5.2,3.2-15.2,6.7-17.8,5.8
			c1.1,3.6,2.4,4.5,4.5,4.5c4.2,0,14.5-4,18.3-6.1c10.2-5.6,12.9-10.2,18.2-13.4c5.3-3.2,11.1-6.8,11.9-8.4c0.8-1.6-2.1-7.7-2.1-7.7
			s-2.8,2.2-6.4,4.8C113.7,590.3,110.9,592.3,108.4,593.8z"/>
		<path class="st1" d="M101.7,574.5c-0.8,0.8-17.2,22.8-17.2,22.8c-1.6,0.2-2.1,0-2.9,0.4l-0.5,0.7c-2.9,4.2-6.5,8.1-8,10.2
			c-0.3,0.4-0.6,0.8-0.8,1.2c-1.7,4-0.7,5-0.7,5c2.6,0.9,12.6-2.6,17.8-5.8c4.5-2.7,8.6-5.9,12.4-9.5c2.6-2.4,4.7-4.5,6.7-5.7
			c2.5-1.5,5.2-3.5,7.7-5.2c3.6-2.6,6.4-4.8,6.4-4.8c-3.5-9.5-7.3-13.5-7.3-13.5c-1.5-0.2-2.5,1.5-3.6,3.2c-0.8,1.2-1.6,2.2-2.9,2.4
			C106.5,575,104.1,574.6,101.7,574.5z"/>
		<path class="st3" d="M73.6,609h-0.5c-0.2,0-0.3-0.1-0.3-0.2c0-0.2,0.1-0.3,0.2-0.3h0.1c4.7,0.4,13.4-5.7,16.4-11.2
			c-1.2-0.4-2.3-0.7-3.6-0.9c-0.1,0-0.2-0.1-0.2-0.1l-1.1,1.5c0,0.1-0.1,0.1-0.2,0.1c-1,0-1.9,0.2-2.8,0.4c-0.1,0.1-0.3,0-0.4-0.2
			l0,0c-0.1-0.2,0-0.3,0.2-0.4l0,0c1-0.3,1.8-0.4,2.8-0.4c1-1.4,11.2-15.2,17.2-22.7c0.1-0.1,0.3-0.1,0.4,0c0.1,0.1,0.1,0.2,0,0.3
			c-4.8,6.2-12.8,16.7-15.9,21c1.4,0.2,2.6,0.5,4,1l0,0h0.1l0.1,0.1v0.1v0.1l0,0C87.6,602.3,79.1,609,73.6,609z M84.7,595.3
			c-0.1,0-0.1,0-0.2,0c-0.1-0.1-0.2-0.3-0.1-0.4c0.1-0.1,7.8-11.8,11.2-15.8c0.1-0.1,0.3-0.1,0.4,0c0.1,0.1,0.1,0.3,0,0.4
			C92.6,583.4,84.9,595.2,84.7,595.3C84.8,595.3,84.7,595.3,84.7,595.3L84.7,595.3z M119.5,579.7L119.5,579.7
			c-1.3-0.7-2.2-1.7-2.8-2.9c-0.7-1.1-1.3-1.9-2.3-2.1c-1-0.2-1.9-0.6-2.8-1.1c-0.1-0.1-0.2-0.3-0.1-0.4c0.1-0.1,0.3-0.2,0.4-0.1
			c0.8,0.5,1.7,0.9,2.6,1.1c1.3,0.2,1.9,1.3,2.7,2.4c0.6,1.1,1.5,2,2.5,2.7c0.1,0.1,0.2,0.2,0.1,0.4
			C119.7,579.6,119.6,579.7,119.5,579.7L119.5,579.7z"/>
		<path class="st4" d="M121.2,250.4c-2.2,4.4-56.9,113.9-57.4,144.7c-0.5,31.4,27.8,173.6,27.8,173.6c5.9-0.1,11.8-0.8,17.5-2.1
			c4.5-1.1,8.9-2.7,13-4.9c0,0-2.3-17.7-5.7-41.5c-6.2-44-15.9-108.8-21-121.1l55.7-97.8l14-12.4l-1.2-9.7l-13.2-24.9
			C132.9,252.9,123.1,250.9,121.2,250.4z"/>
		<path d="M92.7,559.8L92.7,559.8c-0.2,0-0.4-0.1-0.4-0.2c0-0.2,0.1-0.3,0.2-0.3h0.1h0.1c1.4,0,19.4-0.1,28.3-4.7
			c0.1-0.1,0.3,0,0.4,0.1l0,0c0.1,0.1,0,0.3-0.1,0.4C112.3,559.7,94.2,559.8,92.7,559.8z"/>
		<path class="st0" d="M115.1,574.7l-5.1,16.6c1.7,0.2,3.4,0.7,4.9,1.5l0,0c0.5,0.3,1,0.5,1.5,0.8l0,0c1.6,0.9,3.1,1.8,4.5,2.9
			c1.2,0.4,2.4-0.3,3.6-1.1c1.5-1.1,3.1-2.2,4.5-1.5l6.1-16L115.1,574.7z"/>
		<path class="st1" d="M107.6,592c-1.2,0.9-12.9,9.9-20.3,14.7c2.2,0.7,5.8,1.9,7.5,3.1c0,0,15.6-9.4,24.5-14.3
			C116.3,593.5,110.2,589.9,107.6,592z"/>
		<path class="st2" d="M113.6,613.2c-2.2,0.4-4.9,1.5-8.3,2.7c-4.8,1.8-10,3.1-15.1,4c-6,1-16.5,0.4-18.7-1.5
			c-0.4,3.7,0.5,5.1,2.5,5.9c3.9,1.5,14.9,1.8,19.3,1.4c11.5-1.3,15.8-4.5,22-5.4c6.2-1,12.9-1.9,14.2-3.2c1.4-1.3,1-7.9,1-7.9
			s-3.5,1-7.7,2C119.8,612,116.5,612.8,113.6,613.2z"/>
		<path class="st1" d="M114.8,592.9c-1,0.4-24.7,14.5-24.7,14.5c-1.6-0.5-1.9-0.8-2.8-0.8l-0.7,0.5c-4.3,2.7-9.1,5-11.3,6.3
			c-0.4,0.2-0.8,0.5-1.2,0.8c-3.1,3-2.5,4.4-2.5,4.4c2.1,1.8,12.7,2.4,18.7,1.5c5.1-0.9,10.2-2.2,15.1-4c3.4-1.3,6.1-2.4,8.3-2.7
			c2.9-0.5,6.2-1.2,9.1-1.9c4.3-1.1,7.7-2,7.7-2c0.5-10.1-1.5-15.3-1.5-15.3c-1.5-0.8-3,0.5-4.5,1.5c-1.2,0.8-2.4,1.5-3.6,1.1
			C118.9,595.2,116.9,593.9,114.8,592.9z"/>
		<path class="st3" d="M79.9,614.6c-1.6,0.1-3.3-0.3-4.8-1c-0.1-0.1-0.2-0.2-0.1-0.4l0,0c0.1-0.1,0.2-0.2,0.4-0.1
			c4.3,2.1,14.6-0.1,19.4-4.1c-1-0.8-1.9-1.5-3-2.1c-0.1,0-0.1-0.1-0.1-0.2l-1.5,0.9c-0.1,0-0.2,0-0.2,0c-0.9-0.4-1.8-0.6-2.8-0.8
			c-0.2,0-0.3-0.1-0.3-0.3s0.1-0.3,0.3-0.3c1,0.1,1.9,0.4,2.8,0.8c1.5-0.9,16.3-9.8,24.6-14.4c0.1-0.1,0.3,0,0.4,0.1
			c0.1,0.1,0,0.3-0.1,0.4c-6.9,3.9-18.2,10.6-22.7,13.4c1.2,0.7,2.2,1.5,3.3,2.4l0,0v0.1c0,0.1,0,0.2,0,0.3l-0.1,0.1l0,0
			C92.1,612.3,85.3,614.6,79.9,614.6z M91.2,605.5c-0.1,0-0.2,0-0.2-0.1c-0.1-0.1-0.1-0.3,0.1-0.4l0,0c0.1-0.1,11.8-7.9,16.4-10.3
			c0.2-0.1,0.3,0,0.4,0.2c0,0.1,0,0.3-0.1,0.3c-4.6,2.3-16.3,10.2-16.4,10.3C91.3,605.5,91.3,605.5,91.2,605.5z M129.4,604.4
			c-0.1,0-0.2,0-0.2-0.1c-0.8-1.1-1.3-2.4-1.5-3.7c-0.2-1.3-0.4-2.3-1.4-2.9c-0.9-0.5-1.6-1.2-2.2-1.9c-0.1-0.1-0.1-0.3,0.1-0.4l0,0
			c0.1-0.1,0.3-0.1,0.4,0.1c0.6,0.8,1.3,1.5,2,1.9c1.1,0.7,1.4,1.9,1.5,3.2c0.1,1.3,0.6,2.4,1.4,3.5c0.1,0.1,0.1,0.3,0,0.4
			C129.5,604.4,129.4,604.4,129.4,604.4z"/>
		<path class="st3" d="M71.5,618.9c-0.1,0-0.2-0.1-0.3-0.2c-0.1-0.2-0.6-1.6,2.6-4.6c0.4-0.3,0.8-0.6,1.3-0.8c0.8-0.5,1.8-1,3-1.6
			c2.4-1.3,5.4-2.9,8.3-4.7c6.9-4.4,13.5-9.5,20-14.4l1-0.7c0.8-0.5,1.6-0.8,2.5-0.7c0.2,0,0.3,0.1,0.3,0.3c0,0.2-0.1,0.3-0.3,0.3
			l0,0c-0.8-0.1-1.5,0.1-2.1,0.5l-1,0.7c-6.5,4.9-13.3,10.1-20.1,14.4c-2.9,1.8-5.9,3.4-8.3,4.7c-1.2,0.7-2.2,1.2-3,1.6
			c-0.4,0.2-0.8,0.5-1.1,0.8c-2.9,2.7-2.5,4.1-2.5,4.1C71.9,618.6,71.8,618.8,71.5,618.9C71.6,618.8,71.6,618.8,71.5,618.9
			C71.6,618.9,71.6,618.9,71.5,618.9z"/>
		<path class="st4" d="M121,243.4c0,0,0,4.8-0.1,7c0,0,26.3,6.4,80.7,4.9c0.4-2.5,0.7-5,0.8-7.5c-16.7,0.4-32,0.2-47.6-0.8
			C143.8,246.3,132.8,245.1,121,243.4z"/>
		<path class="st4" d="M151.2,301l-34.7,219.2l-7.4,46.4l-2,12.6c0,0,11.2,11.2,29.9,9.2c0,0,35.3-135.2,26.2-171.9
			c0,0,52-111.3,38.3-161.1c-16.9,0.6-33.9,0.2-50.7-1l-4.6,29.6l7.1,4.4L151.2,301z"/>
		<path d="M132.2,588.9L132.2,588.9c-0.2,0-0.3-0.2-0.3-0.3c0.6-2.6,1.2-5.2,1.7-7.7c-7.8-1.5-15.4-4.3-22.4-8.1
			c-0.1-0.1-0.2-0.3-0.1-0.4c0.1-0.1,0.3-0.2,0.4-0.1c7,3.9,14.4,6.6,22.3,8.1c25.6-115,25-161,24.9-162.8c-0.2-0.2-1.1-0.9-1.8-1.5
			c-0.1-0.1-0.2-0.3-0.1-0.4c0,0,0,0,0.1-0.1l1.9-1.5c-0.2-0.4-0.7-1.3-1.2-2c0-0.1,0-0.2,0-0.3c17.7-32.9,27.5-67.8,32.6-91.3
			c3.2-14.3,5.4-28.8,6.8-43.4c-10.3-5.1-10.9-16.7-10.9-16.9c0-0.2,0.1-0.3,0.3-0.3l0,0c0.2,0,0.3,0.1,0.3,0.3l0,0
			c0,0.1,0.7,11.5,10.7,16.4c0.1,0.1,0.2,0.2,0.2,0.3c-1.4,14.7-3.7,29.3-6.9,43.7c-5,23.5-14.8,58.4-32.6,91.4
			c0.5,0.7,0.9,1.5,1.3,2.2c0,0.1,0,0.2-0.1,0.3l-1.8,1.4c0.6,0.4,1.2,0.9,1.6,1.4c0.1,0.2,0.4,12.7-2.9,40.2
			c-2.8,23.9-8.9,64.3-22,123c0.8,0.1,1.5,0.3,2.3,0.4c0.2,0,0.3,0.2,0.3,0.3l0,0c0,0.2-0.2,0.3-0.3,0.3c-0.8-0.1-1.5-0.2-2.3-0.4
			c-0.6,2.6-1.2,5.2-1.7,7.8C132.5,588.8,132.4,588.9,132.2,588.9z M109.1,566.9L109.1,566.9c-0.2,0-0.3-0.2-0.2-0.3l7.4-46.4
			c0-0.2,0.2-0.3,0.4-0.2c0.1,0,0.2,0.2,0.2,0.3l-7.4,46.4C109.4,566.8,109.3,566.9,109.1,566.9L109.1,566.9z M151.2,301.3
			L151.2,301.3c-0.2,0-0.3-0.2-0.2-0.3l0,0l2-12.6l-6.9-4.4c-0.1-0.1-0.2-0.3-0.1-0.4c0.1-0.1,0.3-0.2,0.4-0.1l0,0l7.1,4.4
			c0.1,0.1,0.2,0.2,0.1,0.3l-2,12.8C151.5,301.2,151.4,301.3,151.2,301.3L151.2,301.3z M153.6,280.8c-0.1,0-0.2,0-0.2-0.1l-4.9-5.1
			c-0.1-0.1-0.1-0.2-0.1-0.2l2.3-16.4c0-0.2,0.2-0.3,0.3-0.2c0.2,0,0.3,0.2,0.2,0.3l-2.3,16.3l4.8,5
			C153.8,280.5,153.8,280.7,153.6,280.8C153.8,280.8,153.7,280.8,153.6,280.8L153.6,280.8z M116.1,266.5c-0.2,0-0.3-0.1-0.3-0.3
			s0.1-0.3,0.3-0.3l0,0c6-1.1,10.9-5.1,13.3-10.8c0-0.2,0.2-0.2,0.4-0.2l0,0c0.2,0.1,0.2,0.2,0.2,0.4l0,0
			C127.6,261.2,122.4,265.3,116.1,266.5L116.1,266.5z M182.9,255.8c-0.1,0-0.3-0.1-0.3-0.2c-0.6-2.5-0.7-5.1-0.4-7.6
			c0-0.2,0.2-0.3,0.3-0.2l0,0c0.2,0,0.3,0.2,0.2,0.3l0,0c-0.3,2.5-0.1,5,0.4,7.5C183.2,255.6,183.1,255.8,182.9,255.8L182.9,255.8z
			 M165,255.4c-0.1,0-0.2-0.2-0.2-0.3c-0.5-2.5-0.4-5.1,0.3-7.6c0-0.2,0.2-0.2,0.4-0.2l0,0c0.2,0.1,0.2,0.2,0.2,0.4
			c-0.7,2.4-0.8,4.9-0.3,7.4c0,0.2-0.1,0.3-0.2,0.4H165z M142,253.8c-0.2,0-0.3-0.1-0.3-0.3c-0.2-2.5,0-5.1,0.8-7.6
			c0.1-0.1,0.3-0.2,0.4-0.1c0.1,0.1,0.2,0.2,0.2,0.3c-0.7,2.4-1,4.8-0.8,7.4C142.3,253.7,142.2,253.8,142,253.8L142,253.8L142,253.8
			z M128.3,252.1c-0.2,0-0.3-0.1-0.3-0.3c-0.2-2.5,0-5,0.8-7.4c0-0.2,0.2-0.2,0.4-0.2l0,0c0.2,0.1,0.2,0.2,0.2,0.4
			c-0.7,2.3-0.9,4.7-0.7,7.2C128.6,252,128.4,252.1,128.3,252.1L128.3,252.1L128.3,252.1z"/>
		<path class="st5" d="M116.2,103.2c-15.2,4.6-32.5,69.6-32.5,69.6c-6.7-11.6-27.9-48.1-40.2-62.5c0,0-3.8,4.1-11.4,4.4
			c0,0,20.7,96.7,53.4,95.8c19.2-0.5,28.7-21.7,35.6-38.5c7.3-17.6,10.8-33.4,11.9-44.2C135.2,106.5,131.4,98.5,116.2,103.2z"/>
		<path class="st0" d="M32.8,88.9c-0.5-1.5-1-2.9-1.4-4.4c-1.6-0.7-3.5-0.5-4.9,0.4c-0.4,0.3-0.6,0.6-0.8,1.1
			c-0.8,2.1,0.3,6.5,1.6,9.1c0.2,1.5,0,3-1.1,3.5c-0.9,0.4-2.1-1.5-3.1-3.9c0.1,1.8,0.1,4.6-1.2,4.9c-0.4,0.1-0.7,0-1-0.3
			c2.1,8.3,9.4,14.1,11,15.1c7.6-0.2,11.4-4.4,11.4-4.4s-0.6-13.7-2-18.2c-0.8-1.6-2-2.9-3.7-3.6c-1.8-1-3.8-1.3-4.5-0.5
			C33.1,88.2,32.9,88.5,32.8,88.9z"/>
		<path class="st0" d="M30.5,67.6c-2,0.5-1.5,8,1,16.9c0.4,1.5,0.9,2.9,1.4,4.4c0.2-0.4,0.4-0.8,0.7-1.1c0.7-0.8,2.7-0.4,4.5,0.5
			C37.5,86.5,32.9,67.1,30.5,67.6z"/>
		<path class="st0" d="M22.4,91.8c0.2,1,0.5,1.9,0.9,2.9c1,2.3,2.1,4.3,3.1,3.9c1.1-0.5,1.3-1.9,1.1-3.5c-1.4-2.7-2.4-7-1.6-9.1
			c-0.7,0.2-1.4,0.4-2,0.7c-1.5,0.7-1.7,2-1.6,3.7C22.2,90.9,22.3,91.3,22.4,91.8z"/>
		<path class="st0" d="M19.4,92.5c-0.3,1.7,0.5,5.8,1.7,7c0.3,0.3,0.6,0.4,1,0.3c1.3-0.4,1.3-3.1,1.2-4.9c-0.4-1-0.7-1.9-0.9-2.9
			c-0.1-0.5-0.2-1-0.2-1.5C21.5,90.5,19.8,90.8,19.4,92.5z"/>
		<path class="st6" d="M39.1,107.3c-0.1,0-0.1,0-0.2,0c-4-2.7-4-7.7-4-7.9s0.1-0.3,0.3-0.3l0,0c0.2,0,0.3,0.1,0.3,0.3
			c0,0.1,0,4.9,3.8,7.5c0.1,0.1,0.2,0.3,0.1,0.4l0,0C39.3,107.3,39.2,107.3,39.1,107.3z M21.9,100.1c-0.3,0-0.7-0.1-0.9-0.4
			c-0.1-0.1-0.1-0.3,0-0.4s0.3-0.1,0.4,0l0,0c0.2,0.2,0.4,0.3,0.7,0.2c0.8-0.2,1.2-1.9,1-4.6c-0.4-1-0.7-1.9-0.9-2.9
			c-0.1-0.6-0.2-1-0.3-1.5c0-0.2,0.1-0.3,0.3-0.3c0.1,0,0.2,0.1,0.3,0.2c0,0.4,0.1,0.9,0.2,1.4c0.7,2.9,2.1,6,3.2,6.6
			c0.1,0.1,0.3,0.1,0.4,0.1c1-0.4,1-1.9,0.9-3.1c-1.5-2.8-2.4-7.2-1.6-9.4c0.1-0.2,0.2-0.2,0.4-0.2c0.2,0,0.2,0.2,0.2,0.4l0,0
			c-0.8,2,0.2,6.2,1.5,8.8c0.1,0,0.1,0.1,0.1,0.2c0.3,0.7,0.8,1.4,1.4,1.8c0.5,0.4,0.8,0.3,0.9,0.2c1.4-0.9,1.2-4.5-0.4-8.7
			c-0.1-0.2,0-0.3,0.2-0.4c0.2-0.1,0.3,0,0.4,0.2c0.6,1.5,1,3.1,1.2,4.6c0.3-1.5,0.7-2.8,1.3-4.1c-0.5-1.4-0.9-2.8-1.3-4.3
			c0-0.2,0-0.3,0.2-0.4c0.2-0.1,0.3,0,0.4,0.2c0.4,1.3,0.7,2.4,1.2,3.7c0.1-0.2,0.2-0.4,0.4-0.5c0.9-1,3.1-0.4,4.8,0.5
			c0.1,0.1,0.2,0.2,0.1,0.4l0,0c-0.1,0.1-0.2,0.2-0.4,0.1c-1.8-1-3.6-1.2-4.2-0.6c-0.2,0.3-0.5,0.6-0.6,0.9v0.1
			c-1.1,2.6-1.6,5.5-1.5,8.3c0,0.6,0.2,1.1,0.6,1.5c0.2,0.1,0.4,0.1,0.5,0.1c1.5-0.4,3.5-4.5,4.2-6c0.1-0.1,0.2-0.2,0.4-0.2l0,0
			c0.1,0.1,0.2,0.2,0.1,0.4c-0.3,0.6-2.6,5.7-4.5,6.3c-0.3,0.1-0.7,0-1-0.2c-0.5-0.5-0.8-1.2-0.8-1.8c0-0.2,0-0.3,0-0.5
			c-0.2,0.3-0.4,0.6-0.8,0.8c-0.5,0.3-1.1,0.2-1.5-0.2c-0.4-0.3-0.7-0.7-1-1.2c0,1.4-0.5,2.2-1.3,2.6c-0.3,0.1-0.6,0.1-0.9-0.1
			c-0.9-0.7-1.5-1.5-1.9-2.6c0,2.2-0.5,3.5-1.4,3.8C22.2,100.1,22.1,100.1,21.9,100.1z"/>
		<path class="st7" d="M85.9,176.6c-0.1,0-0.2-0.1-0.3-0.1c0,0-0.8-1.4-2-3.6c-0.1-0.1,0-0.3,0.1-0.4l0,0c0.1-0.1,0.3,0,0.4,0.1l0,0
			c1.4,2.3,2,3.6,2,3.6C86.1,176.3,86,176.5,85.9,176.6L85.9,176.6C85.9,176.6,85.9,176.6,85.9,176.6z M35.6,124c-0.3,0-0.7,0-1-0.1
			c-0.2,0-0.3-0.2-0.2-0.3c0-0.2,0.2-0.3,0.3-0.2l0,0c0.1,0,6.5,0.9,14.4-6c0.1-0.1,0.3-0.1,0.4,0c0.1,0.1,0.1,0.3,0,0.4l0,0
			C43.1,123.3,37.8,124,35.6,124z"/>
		<path class="st5" d="M154.6,247c15.6,1.1,30.9,1.2,47.6,0.8c0,0,5.8-2.1,5.9-10.1c0.1-7.9,29.7-117.1,19.3-131
			c-9.5-12.6-33.5-17.4-60-17c-20.2,0.4-40.5,7.5-51.2,13.4c-15.5,8.5,3.2,119.1,2.9,123.3c-0.3,4.2-3.3,6.4-2,11
			c1.3,4.6,3.8,5.9,3.8,5.9C132.8,245.1,143.8,246.3,154.6,247z"/>
		<path class="st0" d="M179.6,90l-4.4-33.7c7.5-18.4,0.5-36.8-18.9-35.8c-10,0.5-18.3,2.6-19.8,13.6c-2.6,19.2-4.5,52.3,19.9,41.2
			L155,90.6C155.7,101.6,177.5,97.8,179.6,90z"/>
		<path class="st8" d="M166,68.2L155,90.6l1.5-15.2C159.9,73.3,163.1,70.9,166,68.2z"/>
		<path class="st9" d="M177.3,24.6c-6.9-3.6-24.2-13.9-31.4-14.2c-2.7-0.1-5.2,1.1-5.5,3.5c0,0-8.4-0.4-9,7.5
			c-0.3,4.8,1.6,9.5,5.2,12.8c1.1-7.5,5.3-10.9,11-12.5c3.7,2.6,7.1,13.1,20.4,14.5c0,0,1.5,9.2,4.9,10.1c1.9,0.5,4.6,1.6,5.9,0.1
			c0,0,6-16.4-0.3-20.9"/>
		
			<ellipse transform="matrix(0.9998 -1.972127e-02 1.972127e-02 0.9998 -0.951 3.4392)" class="st10" cx="173.9" cy="49.9" rx="5.9" ry="6.6"/>
		<path class="st6" d="M170.9,53.5L170.9,53.5c-0.2,0-0.3-0.1-0.3-0.3c0.2-2.7,1.5-5.1,3.7-6.8c0.1-0.1,0.3-0.1,0.4,0
			c0.1,0.1,0.1,0.3,0,0.4l-0.1,0.1c-0.4,0.3-0.8,0.7-1.2,1.1c3,0,3.8,1.7,3.8,1.7c0.1,0.1,0,0.3-0.1,0.4l0,0c-0.1,0.1-0.3,0-0.4-0.1
			l0,0c0-0.1-0.8-1.5-3.7-1.5c-1.1,1.4-1.6,3-1.8,4.7C171.1,53.4,171,53.5,170.9,53.5z"/>
		<path d="M141.3,62.4l4-15.6c0-0.2,0.2-0.3,0.4-0.3s0.3,0.2,0.3,0.4l-3.1,13.8c0,0.1,6.8-1.5,6.8-1.5l0,0"/>
		<path d="M143.5,70c-1.4,0-2.5-1.6-2.5-1.6l-0.1-0.2c0,0,0.1-0.2,0.2-0.1c2.3,1.5,6.3,1.7,11.9-2.9c0.1-0.1,0.2-0.1,0.2,0
			s0,0.1,0,0.2C150.1,68.6,146.4,70.1,143.5,70z"/>
		<path class="st9" d="M157.5,43.4c0.1-0.9-0.4-1.6-1.3-1.7c0,0,0,0-0.1,0c-0.9-0.1-1.5,0.5-1.7,1.4v0.1c-0.1,0.9,0.4,1.6,1.3,1.7
			c0,0,0,0,0.1,0C156.7,44.8,157.4,44.2,157.5,43.4L157.5,43.4z"/>
		<path d="M152.9,39.4l-0.3-0.2l-0.2-0.3c1.2-2.5,6.3-4.2,8.8-0.2c0.1,0.1,0.1,0.3,0.1,0.5c-0.1,0.1-0.3,0.2-0.5,0.1
			C156.6,35.8,154.6,37.7,152.9,39.4z"/>
		<path class="st9" d="M142.1,41.5c0-0.9-0.8-1.5-1.6-1.5c-0.9,0.1-1.5,0.8-1.5,1.6c0,0,0,0,0,0.1c0,0.9,0.8,1.5,1.6,1.5
			C141.5,43.2,142.1,42.5,142.1,41.5C142.1,41.6,142.1,41.6,142.1,41.5z"/>
		<path d="M144.7,40c-0.1,0-0.2-0.1-0.3-0.2c-0.1-0.1-1.4-2.7-3.4-3c-1.2-0.1-2.3,0.5-3.1,1.4c-0.1,0.1-0.3,0.1-0.5,0l0,0
			c-0.1-0.1-0.1-0.3,0-0.5c0.8-1.4,2.3-2,3.8-1.9c2.3,0.3,3.7,3.3,3.6,3.7c-0.1,0.4,0,0.3-0.1,0.4C144.6,39.9,144.7,40,144.7,40z"/>
		<path class="st11" d="M179.6,90l-15.4,7.5l0.1,0.2c0.8,1.1,5.2,6.8,6.3,8.3C170.6,105.9,179.7,95.7,179.6,90z"/>
		<path class="st11" d="M158.7,105.9c2-2.7,3.9-5.5,5.5-8.4l-9.2-6.9C155,90.6,156.2,100.1,158.7,105.9z"/>
		<path class="st7" d="M154.6,247.3c-0.1,0-0.2-0.1-0.3-0.1c-0.1-0.2-3-5.3-2.2-10.4c0.1-0.4,0.2-1.1,0.4-1.9c0.5-2,1.4-5.5,1.9-10
			c2.8-19.1,4.6-50.9,6.5-81.6c1-16.4,1.9-32,2.9-44.8c-1.5,2.8-4.9,7.4-5,7.5c-0.1,0.1-0.3,0.2-0.4,0.1l-0.1-0.1
			c-2.5-5.7-3.7-15.3-3.7-15.4c0-0.2,0.1-0.3,0.2-0.3l0,0c0.2,0,0.3,0.1,0.3,0.3c0,0.1,1.2,9,3.5,14.7c1.8-2.5,3.6-5.2,5.2-7.9
			c0-0.1,0.1-0.2,0.2-0.2c0.1,0,0.2,0,0.3,0.1c0,0.1,4.7,6.1,6.2,8.1c1.5-1.6,8.8-10.4,8.7-15.4c0-0.2,0.2-0.3,0.3-0.2
			c0.1,0,0.2,0.1,0.2,0.2c0.1,5.7-8.7,15.7-9.1,16.1c-0.1,0.1-0.1,0.1-0.2,0.1c-0.1,0-0.2,0-0.2-0.1c-1-1.4-4.5-5.9-5.8-7.7
			c-1,12.8-1.9,28.4-2.9,45c-1.8,30.8-3.7,62.6-6.5,81.7c-0.7,4.5-1.5,7.9-1.9,10c-0.2,0.9-0.4,1.5-0.4,1.9c-0.8,4.8,2.1,10,2.1,10
			C154.9,247.1,154.8,247.3,154.6,247.3L154.6,247.3C154.8,247.3,154.7,247.3,154.6,247.3z M114.7,182.5c-0.1,0-0.3-0.1-0.3-0.2
			c-2.9-21.5-4.4-38.2-4.5-51.1c0-0.2,0.1-0.3,0.3-0.3l0,0c0.2,0,0.3,0.1,0.3,0.3l0,0c0.1,12.8,1.6,29.5,4.5,51
			C115,182.3,114.9,182.4,114.7,182.5C114.7,182.4,114.7,182.4,114.7,182.5L114.7,182.5z"/>
		<path class="st12" d="M89.3,113.2l22.8,12l3.9,0.3c-1-8.1-23.2-16.3-23.2-16.3L89.3,113.2z"/>
		<path class="st12" d="M119.7,125.7l30.4-6.3l-1.6-4.9c-26.9,4-32.5,10.9-32.5,10.9L119.7,125.7z"/>
		<path class="st13" d="M119.3,123.5L155,116c1.3-0.3,2.4,0.5,2.7,1.7l11.9,49.7c0.2,0.6,0,1.3-0.3,1.7s-0.9,0.9-1.5,1l-35.9,7.2
			c-1.3,0.2-2.4-0.5-2.7-1.7l-11.7-49.3C117.3,125,118.1,123.8,119.3,123.5C119.2,123.5,119.2,123.5,119.3,123.5L119.3,123.5z
			 M98.9,163.9c0.2,0.6,0.6,1.2,1.2,1.5l23.3,11.7c1.2,0.6,2.5,0.1,3.1-1c0.3-0.5,0.3-1.1,0.2-1.5l-12.4-49.8
			c-0.2-0.6-0.6-1.2-1.2-1.5l0,0l0,0l-25.6-13.4c-0.8-0.5-1.8-0.3-2.5,0.3c-0.7,0.6-1.1,1.5-0.8,2.4L98.9,163.9z"/>
		<path class="st13" d="M109.9,126c-0.4-1.2,0.2-2.5,1.4-3c0.3-0.1,0.6-0.2,1-0.1l7.6,0.6c1,0.1,1.8,0.8,2,1.7l11.7,49.4
			c0.3,1.3-0.5,2.5-1.7,2.8c-0.2,0-0.4,0.1-0.6,0.1l-7-0.1c-1.1,0-1.9-0.8-2.2-1.7L109.9,126z"/>
		<path class="st14" d="M124.9,172.8c-0.2,0-0.3-0.1-0.3-0.3s0.1-0.3,0.3-0.3l4-0.2c0.2,0,0.3,0.1,0.3,0.3l0,0
			c0,0.2-0.1,0.3-0.3,0.3l0,0L124.9,172.8L124.9,172.8z M120,133L120,133l-5.3-0.2c-0.2,0-0.3-0.1-0.3-0.3s0.1-0.3,0.3-0.3l5.3,0.2
			c0.2,0,0.3,0.1,0.3,0.3C120.3,132.9,120.2,133,120,133L120,133L120,133z"/>
		<path class="st0" d="M129.9,155.4c0.8,0.7,1.5,1.4,2,1.8C131.3,156.8,130.6,156.1,129.9,155.4z M126.7,164.4
			c5.8,4.2,12.3,7.1,19.3,8.6c6.7-1.3,8.6-7.8,8.6-7.8s-12.1-23.3-13.7-22.8s-1.1,4.3,2.4,11.9l-4.7-1.8c0,0-2.8-3.4-3.7-4.8
			c0,0-1.8-6.9-3.6-7.1c-1.7-0.2-0.9,5.7,0,8.2c0.9,2.5,4.1,6.1,4.1,6.1l-5.4-6.1c0,0-1.5-8.7-3.6-7.9s-0.5,7.6,0.6,10.7
			c0.7,1.5,1.5,2.9,2.8,4c-1.6-1.4-3.4-2.7-3.4-2.7s-1.4-7.8-3.2-7.3c-1.8,0.6-0.3,7,0.7,10.1c0.7,1.8,2.7,3.6,4.3,4.6l-4.7-3.1
			c0,0-1.4-5.6-2.5-5.4s-1,4.5,0.1,7.2C121.9,161.6,126.7,164.4,126.7,164.4z"/>
		<path class="st6" d="M130,161.4L130,161.4c-0.7-0.3-1.3-0.7-1.8-1.1c-0.1-0.1-0.2-0.3-0.1-0.4c0.1-0.1,0.3-0.2,0.4-0.1l0,0
			c1,0.7,1.6,1.1,1.6,1.1c0.1,0.1,0.2,0.3,0.1,0.4C130.2,161.4,130.1,161.5,130,161.4z M132.6,158.1c-0.1,0-0.1,0-0.2-0.1
			c-1-0.8-1.9-1.6-2.8-2.5c-0.1-0.1-0.1-0.3,0-0.4c0.1-0.1,0.3-0.1,0.4,0l0,0c0.9,0.9,1.7,1.6,2.7,2.4c0.1,0.1,0.2,0.3,0.1,0.4l0,0
			C132.8,158,132.7,158.1,132.6,158.1L132.6,158.1z"/>
		<path class="st5" d="M145.9,173c17.8,16.2,85.5,63,108.9,40.7c21.4-20.3-17.2-106.1-33.9-112.9c-7.5-3-34.6-0.9,5.7,85.8
			c-24.9-10.4-72.2-21.6-72.2-21.6S152.6,171.7,145.9,173z"/>
		<path class="st7" d="M203.3,210.9L203.3,210.9c-23.5-10.7-47.8-28.8-57.6-37.7c-0.1-0.1-0.2-0.3-0.1-0.4c0.1-0.1,0.3-0.2,0.4-0.1
			c0,0,0,0,0.1,0.1c2.1,1.9,5,4.4,8.4,7.1c9.1-3.4,10-10.5,10.1-11.9c-6.1-1.5-10.1-2.5-10.2-2.5c-0.2,0-0.2-0.2-0.2-0.4
			s0.2-0.2,0.3-0.2l0,0c0.1,0,4.1,1,10.4,2.5h0.1c11.5,2.9,30.5,8,46.6,13.4c0.1,0.1,0.2,0.3,0.1,0.4c-0.1,0.1-0.2,0.2-0.3,0.2
			c-16-5.3-34.7-10.4-46.2-13.3c-0.1,1.6-1.3,8.7-10.1,12.2c12,9.4,30.4,21.9,48.4,30.2c0.1,0.1,0.2,0.3,0.1,0.4
			C203.5,210.9,203.4,210.9,203.3,210.9L203.3,210.9z M235.6,191.2L235.6,191.2c-3-1.5-6-3-9-4.3c-0.1-0.1-0.2-0.2-0.2-0.4l0,0
			c0.1-0.1,0.2-0.2,0.4-0.1c3.1,1.3,6.1,2.7,9,4.3c0.1,0.1,0.2,0.3,0.1,0.4l0,0C235.7,191.2,235.7,191.2,235.6,191.2z M219,169.4
			c-0.1,0-0.2-0.1-0.3-0.1c-1.2-2.3-10.4-21.7-11.6-24.6c-0.1-0.1,0-0.3,0.2-0.4l0,0c0.2-0.1,0.3,0,0.4,0.2
			c1.3,2.9,10.4,22.3,11.6,24.6c0.1,0.1,0,0.3-0.1,0.4l0,0C219.1,169.4,219.1,169.4,219,169.4z"/>
	</g>
</g>
</svg>
