<svg xmlns="http://www.w3.org/2000/svg" viewBox="0 0 50 50"><defs><style>.cls-1{fill:#408ef7;}.cls-2{fill:#fff;fill-rule:evenodd;}</style></defs><g id="Layer_2" data-name="Layer 2"><g id="Layer_1-2" data-name="Layer 1"><path class="cls-1" d="M25,50A25,25,0,1,0,0,25,25,25,0,0,0,25,50Z"/><path class="cls-2" d="M16.41,21.56A6.53,6.53,0,0,1,22.94,15h9.62a6.53,6.53,0,0,1,0,13.06H22.94A6.53,6.53,0,0,1,16.41,21.56Zm6.53-4.47a4.47,4.47,0,1,0,0,8.94h9.62a4.47,4.47,0,0,0,0-8.94Z"/><path class="cls-2" d="M18,21.91h-.57a6.53,6.53,0,0,0,0,13.06h9.62a6.53,6.53,0,0,0,6.53-6.53,6.72,6.72,0,0,0-.13-1.35,4,4,0,0,1-.78.08H31.35a4.48,4.48,0,0,1-4.29,5.74H17.44a4.47,4.47,0,0,1,0-8.94h.68A4.08,4.08,0,0,1,18,23Z"/></g></g></svg>