<svg xmlns="http://www.w3.org/2000/svg" viewBox="0 0 50 50"><defs><style>.cls-1{fill:#408ef7;}.cls-2{fill:#fff;fill-rule:evenodd;}</style></defs><g id="Layer_2" data-name="Layer 2"><g id="Layer_1-2" data-name="Layer 1"><path class="cls-1" d="M25,50A25,25,0,1,0,0,25,25,25,0,0,0,25,50Z"/><path class="cls-2" d="M19.88,16.6H33.4V27.8H19.88Zm-2.1,0a2.1,2.1,0,0,1,2.1-2.1H33.4a2.1,2.1,0,0,1,2.1,2.1V27.8a2.1,2.1,0,0,1-2.1,2.1H28.28v3.5a2.1,2.1,0,0,1-2.1,2.1H16.6a2.1,2.1,0,0,1-2.1-2.1v-7a2.1,2.1,0,0,1,2.1-2.1h1.18Zm0,9.8H16.6v7h9.58V29.9h-6.3a2.1,2.1,0,0,1-2.1-2.1Z"/><path class="cls-2" d="M29.86,26a1.69,1.69,0,0,1-1.05.36,1.73,1.73,0,0,1,0-3.45,1.75,1.75,0,0,1,1.05.36,1.72,1.72,0,1,1,1.05,3.09A1.67,1.67,0,0,1,29.86,26Z"/></g></g></svg>