<svg xmlns="http://www.w3.org/2000/svg" viewBox="0 0 209.43 168.95"><defs><style>.cls-1{fill:#36174d;}.cls-2{fill:#ffa895;}.cls-3{fill:#19c5ff;}.cls-4{fill:#fff;}.cls-5{fill:#f76d6d;}.cls-6{fill:#ffbb4d;}.cls-7{fill-rule:evenodd;}</style></defs><g id="Layer_2" data-name="Layer 2"><g id="Layer_1-2" data-name="Layer 1"><path class="cls-1" d="M102.1,167.77c.07.41.13.8.19,1.18C102.22,168.57,102.16,168.18,102.1,167.77Z" transform="translate(-7.92)"/><path class="cls-1" d="M130.35,165.47H101.74q-.39-2.53-.86-5.53c-.06-.36-.11-.73-.17-1.1-.2-1.3-.4-2.56-.6-3.88L100,154c-.07-.46-.12-.77-.16-1.08-.08-.47-.15-1-.23-1.45s-.13-.91-.21-1.38-.17-1.12-.26-1.7c0-.29-.09-.59-.13-.89l-.18-1.15c0-.31-.09-.63-.14-1q-.12-.76-.24-1.56c-.11-.74-.23-1.5-.34-2.28-.32-2.1-.66-4.3-1-6.6-.06-.37-.11-.73-.17-1.1s-.1-.67-.15-1l-.15-1c-.11-.69-.21-1.39-.32-2.1,0-.35-.1-.71-.16-1.07-.19-1.26-.38-2.55-.58-3.87-.07-.51-.15-1-.23-1.55-.23-1.56-.47-3.16-.71-4.8-3-20.08-4.73-33.27-5.76-41.83a25.62,25.62,0,0,0,11.85-.53l1.08-.29a42,42,0,0,0,19.39-12.22C122.67,84.41,127.24,141.49,130.35,165.47Z" transform="translate(-7.92)"/><path d="M81.59,23.76A10.93,10.93,0,1,1,70.67,12.84,10.93,10.93,0,0,1,81.59,23.76Z" transform="translate(-7.92)"/><path d="M90.07,15.17A10.93,10.93,0,1,1,79.14,4.24,10.92,10.92,0,0,1,90.07,15.17Z" transform="translate(-7.92)"/><circle cx="92.1" cy="10.92" r="10.92" transform="translate(65.28 101.73) rotate(-85.01)"/><path d="M113.24,19.11A10.93,10.93,0,1,1,102.32,8.18,10.92,10.92,0,0,1,113.24,19.11Z" transform="translate(-7.92)"/><path class="cls-1" d="M111.67,35.45c0,5.35-4,9.7-8.91,9.7s-8.9-4.35-8.9-9.7,4-9.7,8.9-9.7S111.67,30.09,111.67,35.45Z" transform="translate(-7.92)"/><path d="M113.69,27.11c0,5.36-4,9.7-8.91,9.7s-8.9-4.34-8.9-9.7,4-9.7,8.9-9.7S113.69,21.76,113.69,27.11Z" transform="translate(-7.92)"/><path d="M83.49,33.33c0,5.36-4,9.7-8.91,9.7s-8.91-4.34-8.91-9.7,4-9.7,8.91-9.7S83.49,28,83.49,33.33Z" transform="translate(-7.92)"/><path class="cls-2" d="M129.43,51.38a47.5,47.5,0,0,1-8.27,12.19,42,42,0,0,1-19.39,12.22,26.39,26.39,0,0,1-12.93.82A16.48,16.48,0,0,1,77,67C77,66.9,87.61,65.1,87.61,65.1l5.69-1-1.25-2.25L89.86,58c-.12-.22-4.43,1.93-9.7-2.37-6-4.87-4.67-10.69-4.67-10.69l-4.82-12.4V22.39l25-8.49,12.18,29.39,9.3,11.92,3.43-1.08Z" transform="translate(-7.92)"/><path class="cls-3" d="M211.09,134.77l-20.46,30.7h-6.52l-28.23-47,6.57,47h-32.1c-3.11-24-7.68-81.06-9.19-101.9-.16-2.23-.29-4-.38-5.37,0-.89-.1-1.76-.12-2.6,0-.5,0-1,0-1.47l8.81-2.75c7.35-2.36,16.77-3.19,24.41.21,11.92,5.31,20,15.7,35.65,41.72C197.73,107.06,211.09,134.77,211.09,134.77Z" transform="translate(-7.92)"/><path class="cls-3" d="M100.88,159.94q.47,3,.86,5.53l-27.51.43L69,134,57.16,165.47H13.91c1.65-5.32,7.42-23.45,14.68-42.16,1.43-3.68,2.92-7.38,4.45-11,.25-.58.5-1.17.74-1.76,1.39-3.25,2.81-6.43,4.24-9.48.11-.25.23-.5.35-.74,1-2,2-4,2.92-5.93.35-.68.7-1.34,1.05-2,1.34-2.5,2.67-4.82,4-6.91.46-.72.92-1.41,1.37-2.08.94-1.38,1.88-2.63,2.8-3.73l.59-.69c.3-.34.59-.66.88-1A20,20,0,0,1,54,76.17c2.08-1.61,3.84-2.9,5.45-3.94C65.13,68.58,68.76,68,77,67,77,66.9,87.61,65.1,87.61,65.1c0,.22,0,.45.06.7.2,2.27.56,5.71,1.17,10.81C92.18,104.48,96.51,132.22,100.88,159.94Z" transform="translate(-7.92)"/><path class="cls-3" d="M102.29,169c-.07-.38-.13-.77-.19-1.18C102.17,168.18,102.23,168.57,102.29,169Z" transform="translate(-7.92)"/><path class="cls-1" d="M130.4,165.47h-1.85q-1.28-9.79-2.38-19.62-2.55-22.74-4.17-45.57t-2.3-45.71a.94.94,0,0,1,.78-1,.92.92,0,0,1,1,.78q.38,12.82,1.06,25.63,1.2,22.86,3.35,45.64Q127.8,145.57,130.4,165.47Z" transform="translate(-7.92)"/><path class="cls-4" d="M75.28,165.47H73.43c-.26-1.34-.51-2.69-.77-4L67.23,133,61.8,104.56a.92.92,0,0,1,.84-1,.94.94,0,0,1,1,.84l3.06,16,5.42,28.44Z" transform="translate(-7.92)"/><path class="cls-2" d="M111.38,34.22a5.32,5.32,0,1,1-5.32-5.32A5.32,5.32,0,0,1,111.38,34.22Z" transform="translate(-7.92)"/><path class="cls-5" d="M108.93,32.32a.88.88,0,0,0-.62-.34,1,1,0,0,0-.66.18l-3,1.83a1,1,0,0,0-.36.62.92.92,0,0,0,.19.66.89.89,0,0,0,.62.35,1,1,0,0,0,.66-.18l3-1.83a.91.91,0,0,0,.35-.62A1,1,0,0,0,108.93,32.32Z" transform="translate(-7.92)"/><path d="M106.1,28.71c-.35-4-.89-8-1.58-11.91a6.4,6.4,0,0,0,.14-1.81c-.23-4.08-4-7.17-8.46-6.92a8.17,8.17,0,0,0-6.91,4.39,6.29,6.29,0,0,0-4.57-1.59,6.21,6.21,0,0,0-5.62,4.35,4.48,4.48,0,0,0-1.94-.32,4.61,4.61,0,0,0-4.33,4.85,4.75,4.75,0,0,0,.15.93,7.64,7.64,0,0,0-3.07-.47,7.56,7.56,0,1,0,7,3.84,4.91,4.91,0,0,0,.77,0,4.58,4.58,0,0,0,3.72-2.3,6.34,6.34,0,0,0,8.92-1.68A8.25,8.25,0,0,0,97,22.82a8.37,8.37,0,0,0,2-.33c1,3.3,1,6.77,1.31,10.19.1,1.34,0,3.29,1,4.34a2.53,2.53,0,0,0,3.2.21C107,35.54,106.32,31.23,106.1,28.71Z" transform="translate(-7.92)"/><path class="cls-5" d="M103,48s-.7,6-4.4,9.75a19.49,19.49,0,0,1-6.57,4.12L89.86,58a29.73,29.73,0,0,0,10.19-6.23A19.63,19.63,0,0,0,103,48Z" transform="translate(-7.92)"/><path class="cls-6" d="M137.14,17.92l3.09,6.26a1.2,1.2,0,0,0,.9.66l6.92,1a1.2,1.2,0,0,1,.66,2l-5,4.88a1.22,1.22,0,0,0-.35,1.06l1.19,6.88A1.2,1.2,0,0,1,142.81,42l-6.18-3.25a1.23,1.23,0,0,0-1.12,0L129.33,42a1.2,1.2,0,0,1-1.74-1.26l1.19-6.88a1.22,1.22,0,0,0-.35-1.06l-5-4.88a1.2,1.2,0,0,1,.66-2l6.92-1a1.17,1.17,0,0,0,.89-.66l3.1-6.26A1.19,1.19,0,0,1,137.14,17.92Z" transform="translate(-7.92)"/><path class="cls-6" d="M171.57,16.89l3.09,6.27a1.2,1.2,0,0,0,.9.65l6.91,1a1.2,1.2,0,0,1,.67,2l-5,4.88a1.19,1.19,0,0,0-.34,1.06L179,39.68a1.2,1.2,0,0,1-1.73,1.26l-6.19-3.26a1.21,1.21,0,0,0-1.11,0l-6.19,3.26A1.2,1.2,0,0,1,162,39.68l1.18-6.89a1.19,1.19,0,0,0-.34-1.06l-5-4.88a1.2,1.2,0,0,1,.67-2l6.91-1a1.2,1.2,0,0,0,.9-.65l3.09-6.27A1.2,1.2,0,0,1,171.57,16.89Z" transform="translate(-7.92)"/><path class="cls-6" d="M205.42,16.37l3.09,6.26a1.19,1.19,0,0,0,.9.66l6.91,1a1.2,1.2,0,0,1,.67,2l-5,4.88a1.19,1.19,0,0,0-.34,1.06l1.18,6.88a1.19,1.19,0,0,1-1.73,1.26l-6.19-3.25a1.21,1.21,0,0,0-1.11,0l-6.19,3.25a1.19,1.19,0,0,1-1.73-1.26l1.18-6.88a1.19,1.19,0,0,0-.34-1.06l-5-4.88a1.2,1.2,0,0,1,.67-2l6.91-1a1.19,1.19,0,0,0,.9-.66l3.09-6.26A1.2,1.2,0,0,1,205.42,16.37Z" transform="translate(-7.92)"/><path class="cls-1" d="M102.74,162.75q-3.61-19.08-6.63-38.29T90.73,86q-1.33-10.8-2.48-21.62c-.12-1.18-1.93-.92-1.81.25q2,19.32,4.69,38.58t5.94,38.4q1.83,10.72,3.86,21.42C101.15,164.16,103,163.91,102.74,162.75Z" transform="translate(-7.92)"/><path class="cls-4" d="M93.07,63.36q-1.33-2.72-2.69-5.43c-.52-1-2.2-.35-1.68.7L90.87,63c-6.48,1.14-13,2.23-19.41,3.53-6,1.22-12.11,2.88-17.18,6.47S45.81,81.88,43,87.25c-3.18,6-6,12.17-8.62,18.41s-5.1,12.88-7.25,19.46c-.27.82-.53,1.65-.79,2.47a.94.94,0,0,0,.51,1.19.93.93,0,0,0,1.19-.51q3.07-9.78,7-19.3T43.4,90.36C46,85.12,49,79.79,53.54,75.92s10.4-5.86,16.21-7.14c3.12-.7,6.28-1.24,9.43-1.81l10.5-1.88,2.68-.47A.93.93,0,0,0,93.07,63.36Z" transform="translate(-7.92)"/><path class="cls-2" d="M65.9,101.08c-.15,1.33-.34,2.67-.53,4-1.52,10.36-4.56,20.32-7,30.44-2.38,9.94-4.49,19.94-6.66,29.92H7.92q2.61-7.59,5.86-14.95a190.26,190.26,0,0,1,12.83-24.19c.63-1,1.3-2,2-3a120.32,120.32,0,0,0,7.18-11c.3-.58.6-1.16.87-1.76a25.6,25.6,0,0,0,2.15-6.63,6.79,6.79,0,0,0-.23-2.86c-.06-.25-.13-.49-.19-.73-.19-.68-.39-1.34-.53-2A33,33,0,0,1,37.37,95c-.07-.6-.12-1.21-.15-1.82,0-.28,0-.56-.06-.84A44.29,44.29,0,0,1,37,87.06c0-.26,0-.51.07-.75a8.48,8.48,0,0,1,.2-1.14,10.66,10.66,0,0,1,1.57-3.49,34.78,34.78,0,0,1,2.85-3.47,25.6,25.6,0,0,0,1.68-2.09,4.72,4.72,0,0,1,.38-1.29A2.64,2.64,0,0,0,44,73a6.25,6.25,0,0,0-.17-.72,10.62,10.62,0,0,0-.71-1.76c-.62-1.3-.75-1.58-.87-1.87a23.4,23.4,0,0,1-1.35-5.1c0-.35-.1-.72-.15-1.09-.07-.58-.12-1.17-.14-1.77-.08-2.22.31-4.5,2.08-5.91a4.64,4.64,0,0,1,4.91-.56,3.24,3.24,0,0,1,1.57,1.94c.24.77.31,1.58.48,2.37a15.89,15.89,0,0,0,.44,1.64A22.7,22.7,0,0,0,51,62.57a17.8,17.8,0,0,0,1.31,2.33,19.15,19.15,0,0,0,2.77,3.32c.85.78,1.43,1.27,2,1.77.21.18.42.36.62.55s.58.51.87.78l.61.58a23.65,23.65,0,0,1,5.12,8.57C66.8,87.41,66.73,94.07,65.9,101.08Z" transform="translate(-7.92)"/><path class="cls-2" d="M52.81,95a4.74,4.74,0,0,1-1.55,3.58,5.89,5.89,0,0,1-2,1c-.78.23-1.58.43-2.38.6a34,34,0,0,1-4.91.71c-2.58.18-8.78.9-10.45-1.57a13.09,13.09,0,0,1-1.35-2.81c-.2-.56-.38-1.15-.54-1.74-.51-1.83-.88-3.73-1.23-5.27-.07-.29-.14-.58-.2-.87-.13-.59-.25-1.19-.35-1.78a59.83,59.83,0,0,1-.86-6.53c0-.61-.08-1.22-.1-1.83a9.45,9.45,0,0,1,.12-2.9,3.61,3.61,0,0,1,1.22-1.83,9.61,9.61,0,0,1,1.91-1.13c.71-.36,1.45-.69,2.19-1a27.9,27.9,0,0,1,9-2c2.53-.09,5.31.31,7.18,2.12A7,7,0,0,1,50.25,75c.21.85.31,1.31.4,1.77.25,1.16.47,2.33.68,3.5.14.81.28,1.63.4,2.44.09.6.18,1.2.26,1.8.25,1.91.46,3.82.61,5.74,0,.35,0,.71.08,1.06,0,.61.09,1.23.12,1.84S52.83,94.35,52.81,95Z" transform="translate(-7.92)"/><path class="cls-5" d="M50.65,76.78l-2.79.44c-7,1.09-13.91,2.32-20.92,3,0-.61-.08-1.22-.1-1.83,1.44-.15,2.87-.32,4.3-.51C37.53,77.08,43.89,76,50.25,75,50.46,75.86,50.56,76.32,50.65,76.78Z" transform="translate(-7.92)"/><path class="cls-5" d="M52,84.52l-5.58,1Q37.28,87,28.15,88.56c-.13-.59-.25-1.19-.35-1.78l2.81-.48,21.12-3.58C51.82,83.32,51.91,83.92,52,84.52Z" transform="translate(-7.92)"/><path class="cls-5" d="M52.8,93.16c-.87.08-1.74.11-2.6.19a151.48,151.48,0,0,0-20.08,3.09c-.2-.56-.38-1.15-.54-1.74l2.3-.5q6.06-1.28,12.23-2c2-.25,4.07-.47,6.12-.64l2.45-.19C52.73,91.93,52.77,92.55,52.8,93.16Z" transform="translate(-7.92)"/><path class="cls-5" d="M64,89.49a15,15,0,0,0-10.58-2.33c-.11-1.15-.25-2.29-.41-3.43-.6-4.49-1.24-9.34-4.7-12.62a8.42,8.42,0,0,0-6.42-2.41c-1.18.1-.92,1.91.25,1.81a6.56,6.56,0,0,1,4.81,1.83,11,11,0,0,1,3,5,36,36,0,0,1,1.19,6.19c.61,4.48,1.27,9.8-.24,14.34-.37,1.12,1.33,1.8,1.7.68a25,25,0,0,0,1-9.53,13.19,13.19,0,0,1,9.33,2C63.83,91.6,64.93,90.15,64,89.49Z" transform="translate(-7.92)"/><path d="M81.89,47.8l2.77-11a.21.21,0,0,1,.25-.16.2.2,0,0,1,.16.25L82.9,46.69c0,.06,4.78-1.08,4.76-1h0" transform="translate(-7.92)"/><path d="M83.46,53.08c-1,0-1.78-1.14-1.78-1.14l-.09-.12s0-.15.13-.09c1.59,1.07,4.43,1.22,8.36-2a.11.11,0,0,1,.15,0,.12.12,0,0,1,0,.15A9.31,9.31,0,0,1,83.46,53.08Z" transform="translate(-7.92)"/><path class="cls-7" d="M93.23,34.36a1.1,1.1,0,1,0-2.18-.26,1.11,1.11,0,0,0,1,1.26A1.13,1.13,0,0,0,93.23,34.36Z" transform="translate(-7.92)"/><path d="M90,31.6l-.16-.14-.13-.17a3.66,3.66,0,0,1,6.21-.15c.06.1.11.21,0,.3a.22.22,0,0,1-.3,0C92.58,29.09,91.21,30.42,90,31.6Zm-.16-.14Z" transform="translate(-7.92)"/><path class="cls-7" d="M82.39,33.12a1.09,1.09,0,1,0-1,1.22A1.11,1.11,0,0,0,82.39,33.12Z" transform="translate(-7.92)"/><path d="M84.21,32a.22.22,0,0,1-.19-.12s-1-1.9-2.36-2.11a2.55,2.55,0,0,0-2.16,1,.22.22,0,0,1-.3,0,.24.24,0,0,1,0-.3,2.93,2.93,0,0,1,2.7-1.4,3.53,3.53,0,0,1,2.51,2.6c0,.2,0,.23-.09.29Z" transform="translate(-7.92)"/></g></g></svg>